<svg xmlns="http://www.w3.org/2000/svg" xmlns:xlink="http://www.w3.org/1999/xlink" width="254.846" height="55.216" viewBox="0 0 254.846 55.216">
  <defs>
    <clipPath id="clip-path">
      <rect id="Rectangle_143" data-name="Rectangle 143" width="254.846" height="55.216" fill="#393939"/>
    </clipPath>
  </defs>
  <g id="Group_216" data-name="Group 216" opacity="0.785">
    <g id="Group_215" data-name="Group 215" clip-path="url(#clip-path)">
      <path id="Path_7199" data-name="Path 7199" d="M246,22.908c1.28-3.021,8.842-3.949,8.842-3.945a20.322,20.322,0,0,0-.84-4.188,18.418,18.418,0,0,0-1.968-4.647,2.867,2.867,0,0,1-1.215.785,6.036,6.036,0,0,1-2.056.443s1.865-1.609,1.955-3.139a6.109,6.109,0,0,0-.478-2.72,9.19,9.19,0,0,1-1.591,1.05c-1.267.729-3.6,1.764-8.487,4.564a12.11,12.11,0,0,0-5.175,5.968c-3.058-3.8-9.319-6.352-19.177-4.188-2.265.5-4.447,1.088-6.281,1.629.262-8.053-9.913-10.929-16.779-9.2a40.707,40.707,0,0,0-10.04,4.494c.188-3.3.291-5.193.293-5.193A15.371,15.371,0,0,0,178.7,4.5a3.916,3.916,0,0,0-2.485,1.28,1.269,1.269,0,0,0-.68-.787,4.892,4.892,0,0,0-1.795-.526,2.191,2.191,0,0,0-1.03-.025s.246,2.144.455,5.671c.114,1.3.57,15.682.491,23.615,0,1.6-.044,7.253-.047,7.248a6.444,6.444,0,0,0,.934.027,2.1,2.1,0,0,0,1.409-.815,3.31,3.31,0,0,0,1.2,1.463,12.392,12.392,0,0,0,3.475.87c-.007.007.636-9.3,1.334-20.279.095-1.494.184-2.917.267-4.26.356.1.8.225.8.225s.075.278.293,1.069a5.835,5.835,0,0,0,.576,1.367s.473-.343.834-.65c.262-.224.741-.556.741-.556s.483,2.316,1.178,11.6c.734,10.169.651,12.948.661,12.954a6.363,6.363,0,0,0,3.745-.913,2.646,2.646,0,0,0,.954-1.973s.37.349.833.7a3.764,3.764,0,0,0,1.208.524,38.056,38.056,0,0,1-.246-3.842c-.029-1.028-.069-2.48-.1-4.255,1.216.937,2.735,2.039,4.493,3.172a44.826,44.826,0,0,0,9.2,4.512,6.237,6.237,0,0,0,2.158-1.348,24.126,24.126,0,0,0,2.067-2.123A4.532,4.532,0,0,1,210.508,38a4.582,4.582,0,0,1-.65-.51,3.631,3.631,0,0,0,1.494-.319,2.763,2.763,0,0,0,.844-.926s-2.65-1.23-6.7-3.469a27.351,27.351,0,0,1-5.78-3.988s4.649-2.947,6.785-6.193q.206-.314.4-.622a7.094,7.094,0,0,0,1.476,2.148,2.471,2.471,0,0,1,1.206-1.01,2.691,2.691,0,0,0-.179,1.343,1.955,1.955,0,0,0,.658,1.379l.837-.446c.373-.2.744-.353.744-.353s.353.654,1.222,5.938c1.5,9.2,1.44,10.186,1.447,10.188a5.3,5.3,0,0,1-1.59.5,18.048,18.048,0,0,1-2.054.2,8.437,8.437,0,0,0,1.653,2.769,2,2,0,0,0,1.25.6s-.6.165-.7.674a10.79,10.79,0,0,0-.109,1.436s4.09.611,11.369-3.454c5.533-3.093,11.4-8.46,12.922-15.4a17.651,17.651,0,0,0,3.2,2.646c2.557,1.682,3.627,2.671,3.44,4.056a6.4,6.4,0,0,1-3.547,4.515,14.062,14.062,0,0,1-5.409,1.625,2.014,2.014,0,0,0,.926,1.208,3.826,3.826,0,0,0,1.583.281,5.076,5.076,0,0,0-1.217.993,20.944,20.944,0,0,0,1.852,2.416,11.419,11.419,0,0,0,2.787,2.277s6.736-2.655,10.09-6.343,2.8-9.1.193-11.434c-2.8-2.5-6.215-4.808-4.937-7.814m-47.372-3.8c-2.2,3.822-4.819,4.313-4.815,4.359-.118-2.965-.219-4.549-.182-7.847A6.5,6.5,0,0,1,196.8,14.7c2.04-.065,3.492,1.517,1.834,4.405m29.228,8.158a14.881,14.881,0,0,1-7.284,11.014s-.231-3.122-.537-8.418c-.3-5.094-.208-7.05-.206-7.05s8.959-3.054,8.027,4.454M172.1,13.287c-.441-8.877-8.422-13.057-21.164-10.6-5.667,1.088-14.208,5-16.269,5.929a13.072,13.072,0,0,1-2.818,1.072s.623,2.608,2.225,3.1a6.123,6.123,0,0,0,2.631.3,3.663,3.663,0,0,1-1.3.67c-1.3.278-1.593.091-1.593.091a19.989,19.989,0,0,0,2.868,3.289,14.649,14.649,0,0,0,3.6,2.62,7.228,7.228,0,0,1,1.476-.965c.76,4.36,1.945,11.558,2.44,15.148.447,3.208.978,6.448,1.349,8.62a21.685,21.685,0,0,1-4.124.374s.553,2.645,1.837,3.738c1.494,1.274,2.42,1.058,2.42,1.058a2.908,2.908,0,0,1-.941.536,3.414,3.414,0,0,1-1.218.163,3.539,3.539,0,0,0,1.1,1.582,4.828,4.828,0,0,0,1.394.67,33.811,33.811,0,0,0,16.6-4.9c9.308-5.7,9.919-11.376,9.077-15.262s-7.4-4.679-7.4-4.674,8.12-6.034,7.8-12.552M152.749,23.515c-.239-3.42-.467-6.155-.64-8.093,4.891-2.028,9.1-1.65,7.735,3.309-.774,2.8-3.684,5.1-6.942,7-.054-.793-.1-1.538-.152-2.219m1.043,16.893c-.1-1.754-.214-3.827-.342-5.979,5.246-2.545,7.625-.434,7.485.529-.345,2.373-3.488,4.156-7.143,5.45M123.051,6.6a28.649,28.649,0,0,1-.953,3.1,17.885,17.885,0,0,1-1.17,2.323,3.911,3.911,0,0,0-.048-2.222,3.884,3.884,0,0,0-2.112-1.925A152.5,152.5,0,0,1,116.1,22.986c-1.656-2.879-3.705-6.457-4.41-7.824-1.26-2.448-2.051-4.326-2.051-4.326a2.86,2.86,0,0,0-.723,1.457,4.383,4.383,0,0,0-.159,1.643,4.921,4.921,0,0,0-.932-1.088,9.856,9.856,0,0,0-.271-2.86c-1.259-5.16-8.57-8.387-17.224-5.35a70,70,0,0,0-8.7,4.11c-2.422,1.317-3.974,1.99-3.974,1.99A8.1,8.1,0,0,0,79.207,13.5a3.964,3.964,0,0,0,2.469,1.482,1.937,1.937,0,0,1-.934.6c-.99.355-1.126.413-1.126.413a6.528,6.528,0,0,0,1.43,1.408c.58.429.854.609,1.231.547a10.853,10.853,0,0,1,.487,2.207c-1.448.29-3.617.76-5.92,1.383-4.2,1.136-8.941,2.932-8.941,2.932a3.031,3.031,0,0,0,.57.649,2.758,2.758,0,0,0,1.419.528,2.3,2.3,0,0,1-.658.5,4.075,4.075,0,0,1-.565.207,11.693,11.693,0,0,1,.954,1.869c.62,1.62.955,2.523.955,2.523s1.671-.586,3.392-1.135c.158,1.22.286,2.578.391,3.661.017.18.027.368.042.562-4.092,1.693-9.416,2.868-9.582-2.72a15.212,15.212,0,0,1,8.114-14.169,42.508,42.508,0,0,1,4.034-1.652A24.513,24.513,0,0,0,77.207,12a28.609,28.609,0,0,0-.352-4.149,6.256,6.256,0,0,1-1.31.423,5.974,5.974,0,0,1-1.222.131s.468-.206,1.1-1.386A4.008,4.008,0,0,0,75.752,4.5s-1.2.389-4.671,1.684c-3.625,1.326-12.531,6.083-14.3,19.157.046-3.953.1-7.829.175-10.519.15-5.063.518-11.907.514-11.906A29.3,29.3,0,0,0,51.459,5.7c-1.528,1.166-1.264,2.2-1.22,2.26-.052-.035-.678-.444-1.13-.736a3.759,3.759,0,0,0-1.51-.532,76.716,76.716,0,0,1,.764,8.282c.093,3.859.822,10.147.821,10.141s-2.866-4.968-5.357-8.934c-3.437-5.47-5.943-9.83-5.943-9.828a3.394,3.394,0,0,0-1.32,1.983,4.4,4.4,0,0,0-.1,1.645s-.974-1.5-1.6-1.29a26.86,26.86,0,0,1-4.63,1.151s.477,5,1.272,12.656c.162,1.562.318,3.156.466,4.733-.783.232-1.719.516-2.357.726-.069-.486-.126-1.208-.195-1.708C27.3,10.963,26.956,7.173,26.754,5.126c-.205-2.066-.31-3.171-.31-3.171s-.264.074-.753.234a4.212,4.212,0,0,1-.941.245,11.692,11.692,0,0,0,.366-1.372A3.948,3.948,0,0,0,25.105,0S22.474,1.257,13.524,4.629A84.62,84.62,0,0,1,0,8.674,10.448,10.448,0,0,0,2.18,11.8a4.451,4.451,0,0,0,2.939.867,5.225,5.225,0,0,1-1.611.777,5.326,5.326,0,0,1-1.707.111,12.84,12.84,0,0,0,1.387,3C4.537,18.863,5.125,19.2,5.125,19.2a1.4,1.4,0,0,0,.759.048c.491-.1.569-.228.569-.228s-.408,5.257-1.792,17.961c-1.04,9.551-1.989,18.232-1.989,18.234a25.126,25.126,0,0,0,2.481-.61,9.343,9.343,0,0,0,3.431-1.723,4.358,4.358,0,0,0,.951-.93,2.34,2.34,0,0,1,0,.944,2.41,2.41,0,0,0-.094.575,12.563,12.563,0,0,0,1.905-.349,7.539,7.539,0,0,0,1.427-.587s-.1-2.013-.01-3.577c.044-.742.3-4,.77-8.072,1.4-.516,3.712-1.089,5.291-1.6.941-.3,1.587-.455,2.522-.673,1.341,6.7,2.643,11.96,2.643,11.96a3.34,3.34,0,0,0,1.613-.388,6.224,6.224,0,0,0,1.136-1,7.387,7.387,0,0,0,3.992,1.035c1.1-.119,2.749-.446,2.749-.446s-1.5-5.946-2.67-13.212a13.379,13.379,0,0,1,1.924-.528c.383,4.7.619,8.036.619,8.037a4.253,4.253,0,0,0,2.759-1.058,3.924,3.924,0,0,0,.574-.955,3.539,3.539,0,0,0,2.829,1.27,10.9,10.9,0,0,0,2.369-.379,66.523,66.523,0,0,1-.61-8.194c-.138-3.861-.232-8.141-.232-8.141s1.74,2.545,3.937,5.75c3.3,4.821,6.085,9.7,6.085,9.7a5.065,5.065,0,0,0,1.986-.157,4.858,4.858,0,0,0,1.9-.982,2.1,2.1,0,0,0,1.7.688s.017-3.833.06-8.851c1.426,9.424,9.284,9.948,12.68,9.605a25.787,25.787,0,0,0,5.506-1.373c.24,2.262.252,4.534.252,4.534a5.968,5.968,0,0,0,1.13-.3c.3-.129.847-.385.847-.385a15.882,15.882,0,0,0,1.7,1.407,9.321,9.321,0,0,0,2.544,1.2s.042-1.387.089-3.9c.134-7.045.226-13,.338-15.75l1.755-.36c.414,4.9.914,10.9.914,10.9a2.283,2.283,0,0,0,1.318-.306A3.623,3.623,0,0,0,86.809,36.9,5.029,5.029,0,0,0,87,38.469c.236.736.691.819,1.79.983s2.447.418,2.447.418-.047-1.291-.1-2.591c-.019-.49-.192-2.682-.409-5.442,1.733.976,3.67,2.077,5.3,3.032,4.052,2.372,11.465,6.928,11.463,6.927a22.955,22.955,0,0,0-.181-3.606,7.129,7.129,0,0,0-1.408-2.972,7.222,7.222,0,0,0,2.255-.488,2.2,2.2,0,0,0,.657-.756s-3.2-2.464-5.554-3.9c-1.054-.643-3.225-2.449-5.407-3.723a44.266,44.266,0,0,0,6.331-5.687,76.234,76.234,0,0,0,5.269,6.406c1.339,1.472,3.009,3.21,4.408,4.643-2.264,7.949-4.795,14.837-4.791,14.831a7.762,7.762,0,0,0,3.466.807,4.9,4.9,0,0,0,3.1-1.273,3.4,3.4,0,0,0-.008,1.454,2.364,2.364,0,0,0,.837,1.087c-.011,0,2.442-5.53,5.267-12.781a219.558,219.558,0,0,0,7.574-22.19c.962-3.717-6.261-7.051-6.26-7.047M14.648,32.923a137.036,137.036,0,0,1,2.42-16.461c0-.005,1.609,6.48,2.886,14.688-1.528.518-3.418,1.146-5.306,1.773M94.907,19.035a16.421,16.421,0,0,1-4.715,3.121c-.1-1.406-.069-2.487-.087-3.224-.036-1.493-.038-2.751-.03-3.709a17.685,17.685,0,0,1,2.04-1.047c4.174-1.71,5.4-.576,5.46.194s-.48,2.71-2.668,4.665" fill="#393939"/>
    </g>
  </g>
</svg>
