<svg xmlns="http://www.w3.org/2000/svg" xmlns:xlink="http://www.w3.org/1999/xlink" width="339.402" height="26.163" viewBox="0 0 339.402 26.163">
  <defs>
    <clipPath id="clip-path">
      <rect id="Rectangle_144" data-name="Rectangle 144" width="339.402" height="26.163" transform="translate(0 0)" fill="#393939"/>
    </clipPath>
  </defs>
  <g id="Group_218" data-name="Group 218" opacity="0.785">
    <g id="Group_217" data-name="Group 217" transform="translate(0 0)" clip-path="url(#clip-path)">
      <path id="Path_7200" data-name="Path 7200" d="M103.473,1.517a1.48,1.48,0,1,0-2.959,0h.366l-.366,0,0,.46V24.354l0,.208a1.48,1.48,0,1,0,2.959,0l0-.215V1.974ZM181.375,0H158.89a1.5,1.5,0,0,0-1.478,1.517,1.5,1.5,0,0,0,1.478,1.511h.019l.034,0h9.683V21.377l-.028,3.142a1.479,1.479,0,1,0,2.957.006l.021-3.143V3.025h9.748l.007,0h.043a1.5,1.5,0,0,0,1.478-1.511A1.5,1.5,0,0,0,181.375,0M358.289,0H335.982a1.5,1.5,0,0,0-1.476,1.515,1.494,1.494,0,0,0,1.476,1.512H336l.035,0h9.6V22.671l-.028,1.839a1.477,1.477,0,1,0,2.953,0l.024-1.838,0-18.12,0-.939V3.025h9.65l.017,0h.041a1.5,1.5,0,0,0,1.477-1.512A1.5,1.5,0,0,0,358.289,0M321.525,9.1a1.48,1.48,0,1,0-2.96,0h.368l-.368,0,0,.459V24.354l0,.208a1.48,1.48,0,1,0,2.96,0l-.005-.215V9.561Zm76.867-6.65a1.513,1.513,0,0,0-.4-2.169,1.6,1.6,0,0,0-2.151.358L395.664.8l-.021.021-8.48,10.712-.784,1.014-.4.5-.052.063-.05-.062-.394-.507-.781-1.006L376.218.816l-.2-.173a1.577,1.577,0,0,0-1.268-.628,1.609,1.609,0,0,0-.888.267,1.522,1.522,0,0,0-.693,1.273,1.5,1.5,0,0,0,.285.882l.566.706L384.28,16.307v6.519l.007,1.709a1.548,1.548,0,0,0,3.095,0l-.048-1.718,0-6.523Zm-174.879,12.8h0v-9l0-4.737a1.476,1.476,0,0,0-2.951-.03c0,.008,0,.028,0,.049V14.594c0,1.016.038,1.7.038,2.387a17.082,17.082,0,0,1-.124,2.065c-.154,1.442-.214,2.855-1.251,3.5a7.2,7.2,0,0,1-3.466.524c-.713,0-1.48-.017-2.266-.017H208.05c-.78,0-1.547.017-2.262.017a7.207,7.207,0,0,1-3.466-.524c-1.035-.643-1.1-2.056-1.252-3.5a17.572,17.572,0,0,1-.124-2.065c0-.695.036-1.378.036-2.405V1.564a.054.054,0,0,0,0-.024V1.508a1.477,1.477,0,0,0-2.953,0V6.254q0,3,0,6,0,1.5,0,3v1.824c0,.836,0,1.561,0,2.76V20a5.982,5.982,0,0,0,.624,3.16A6.419,6.419,0,0,0,202.8,25.9a26.272,26.272,0,0,0,3.688.18h8.565a26.339,26.339,0,0,0,3.69-.18,6.408,6.408,0,0,0,4.145-2.74,6.026,6.026,0,0,0,.626-3.186v-.119c0-1.227,0-1.953,0-2.8,0-.512,0-1.068,0-1.8M263.5,2.949A6.415,6.415,0,0,0,259.352.215a25.883,25.883,0,0,0-3.693-.182H247.1a25.876,25.876,0,0,0-3.691.182,6.411,6.411,0,0,0-4.148,2.734,6.057,6.057,0,0,0-.626,3.188V19.974a6.042,6.042,0,0,0,.626,3.187,6.4,6.4,0,0,0,4.148,2.736,25.764,25.764,0,0,0,3.691.183h8.561a25.771,25.771,0,0,0,3.693-.183A6.4,6.4,0,0,0,263.5,23.16a5.977,5.977,0,0,0,.622-3.167V6.119a5.99,5.99,0,0,0-.622-3.17m-2.426,16.126c-.149,1.434-.215,2.829-1.247,3.469a7.209,7.209,0,0,1-3.465.524c-.716,0-1.48-.017-2.262-.017H248.66c-.783,0-1.552.017-2.264.017a7.2,7.2,0,0,1-3.465-.524c-1.028-.64-1.1-2.039-1.248-3.469V7.036c.151-1.433.219-2.83,1.248-3.468a7.159,7.159,0,0,1,3.465-.525c.713,0,1.476.018,2.264.021l5.438,0c.784,0,1.549-.018,2.262-.018a7.13,7.13,0,0,1,3.465.525c1.031.637,1.1,2.035,1.247,3.468ZM286.984,3.254a17.721,17.721,0,0,1,2.2-.128c.788,0,1.573.035,2.578.035h0l0,0h.034c1.151,0,3.11,0,4.26,0h5.994a.2.2,0,0,0,.03,0,.083.083,0,0,0,.029,0,1.492,1.492,0,0,0,1.441-1.507A1.5,1.5,0,0,0,302.114.142h-3.026c-1.466,0-2.73,0-3.995,0s-2.527,0-3.992,0h-1.742c-1.005,0-1.905,0-3.148-.009h-.14a5.71,5.71,0,0,0-3.11.642,6.6,6.6,0,0,0-2.672,4.249,28.149,28.149,0,0,0-.177,3.775v8.635a28.168,28.168,0,0,0,.177,3.774,6.6,6.6,0,0,0,2.672,4.25,5.632,5.632,0,0,0,3.081.639c.058,0,.11,0,.156,0,1.2,0,2.076,0,3.028,0H291.1v0h7.987l3.016-.006a1.511,1.511,0,0,0,.029-3.018h-.05s0,0-.032,0h-10.3c-1,0-1.785.035-2.566.035a17.623,17.623,0,0,1-2.2-.127c-1.408-.159-2.791-.218-3.42-1.281a7.647,7.647,0,0,1-.509-3.545c0-.732.014-1.516.014-2.319V10.4c0-.8-.014-1.585-.014-2.317a7.654,7.654,0,0,1,.509-3.547c.63-1.062,2.012-1.121,3.42-1.282M144.721,4.478a3.64,3.64,0,0,0-1.366-3.2C142.234.456,140.373,0,137.178,0H121.57A1.5,1.5,0,0,0,120.1,1.515a1.5,1.5,0,0,0,1.477,1.511l1.645.008,4.856,0V3.025h7.39c.491-.012.936-.019,1.347-.019a8.222,8.222,0,0,1,3.718.531c.65.369.927.911,1.1,2.009v5.247l0,.012c-.168,1.1-.445,1.638-1.1,2.01a8.259,8.259,0,0,1-3.72.53c-.409,0-.855-.006-1.33-.017l-4.849,0v0h-4.853l-4.2-.008a1.514,1.514,0,0,0,0,3.027l3.248,0v0h9.4l5.219,6.71,1.834,2.5a1.475,1.475,0,0,0,1.18.6,1.445,1.445,0,0,0,.892-.308,1.518,1.518,0,0,0,.586-1.206,1.553,1.553,0,0,0-.3-.918l-1.845-2.509-3.65-4.889c2.613-.085,4.211-.523,5.215-1.261a3.628,3.628,0,0,0,1.366-3.2V4.478Z" transform="translate(-59.284 0)" fill="#393939"/>
      <path id="Path_7201" data-name="Path 7201" d="M633.458,3.255a1.524,1.524,0,0,0,1.5-1.543,1.507,1.507,0,1,0-3.013,0,1.527,1.527,0,0,0,1.51,1.543" transform="translate(-372.728 -0.1)" fill="#393939"/>
      <path id="Path_7202" data-name="Path 7202" d="M26.62.715A1.551,1.551,0,0,0,25.3,0H14.3a1.534,1.534,0,0,0-1.551,1.512A1.534,1.534,0,0,0,14.3,3.028h8.486L13.405,21.17,2.938.881A1.578,1.578,0,0,0,.863.205a1.51,1.51,0,0,0-.787.89A1.469,1.469,0,0,0,.166,2.241L12.018,25.212a1.569,1.569,0,0,0,2.77,0L26.689,2.2A1.485,1.485,0,0,0,26.62.715" transform="translate(0 -0.002)" fill="#393939"/>
    </g>
  </g>
</svg>
