<svg xmlns="http://www.w3.org/2000/svg" xmlns:xlink="http://www.w3.org/1999/xlink" width="203.853" height="73.118" viewBox="0 0 203.853 73.118">
  <defs>
    <clipPath id="clip-path">
      <rect id="Rectangle_150" data-name="Rectangle 150" width="203.853" height="73.118" fill="#393939"/>
    </clipPath>
  </defs>
  <g id="Group_230" data-name="Group 230" opacity="0.785">
    <g id="Group_229" data-name="Group 229" clip-path="url(#clip-path)">
      <path id="Path_7341" data-name="Path 7341" d="M760.237,86.687V80.348c0-7.395-5.893-9.012-12.934-8.743-14.945.57-11.694,9.068-5.584,7.724.385-2.739,8-6.482,9.13-1.579.046.2.079,1.232.1,1.561l-.058.062c-4.263-.011-10.379,1.177-14.015,4.051-6.245,4.939-2.535,13.854,5.873,13.854a13.218,13.218,0,0,0,8.219-2.588c2.179,2.963,9.928,2.729,10.6,1.785a.47.47,0,0,0,.049-.462c-1.7-4.219-1.371-4.785-1.371-9.326m-9.274.043a4.97,4.97,0,0,1-2.377,4.592c-5.817,3.007-7.889-4.064-2.535-6.741a10.973,10.973,0,0,1,4.912-.981Z" transform="translate(-636.323 -62.074)" fill="#393939" fill-rule="evenodd"/>
      <path id="Path_7342" data-name="Path 7342" d="M511.815,34.192a13.338,13.338,0,0,0,9.428-12.585,12.688,12.688,0,0,0-2.751-8.09A11.982,11.982,0,0,0,511.97,9.4a11.85,11.85,0,0,0-3.383-.316,10.96,10.96,0,0,0-7.051,2.767V.5a.472.472,0,0,0-.195-.389.485.485,0,0,0-.43-.09L492.618,2.28c-.008,0-.016,0-.016.008l-1.72.536a.485.485,0,0,0-.316.3.472.472,0,0,0,.04.43c2.09,3.472,1.647,6.062,1.647,10.132V28.317a14.817,14.817,0,0,1-1.371,5.176.47.47,0,0,0,.049.462c.667.945,8.517,1.084,10.7-1.878-.077-.03,4.65,3.663,10.188,2.115m-.487-7.505a4.676,4.676,0,0,1-2.215,3.026,3.129,3.129,0,0,1-.714.26,3.6,3.6,0,0,1-1.81-.016c-2.6-.722-4.13-4.13-4.674-6.524s-.608-6.093,1.412-7.871a3.612,3.612,0,0,1,1.558-.8,2.94,2.94,0,0,1,.8-.089,4.683,4.683,0,0,1,3.286,1.728,11.093,11.093,0,0,1,2.337,4.852,11.076,11.076,0,0,1,.024,5.429" transform="translate(-425.401 0)" fill="#393939" fill-rule="evenodd"/>
      <path id="Path_7343" data-name="Path 7343" d="M516.856,347.506c-7.757,0-14.069,4.535-14.069,12.722,0,8.211,6.28,12.779,14.069,12.779,4.17,0,8.479-1.176,11.254-4.463a.5.5,0,0,0,.008-.633.487.487,0,0,0-.624-.113,11.224,11.224,0,0,1-5.453,1.371,11.724,11.724,0,0,1-1.688-.113c-4.925-.706-7.781-4.576-8.512-9.274a12.994,12.994,0,0,1,.365-5.907c.39-1.168,1.169-2.629,2.483-2.937,3.459-.819,7.844,2.965,7.076,7.8-.026.165.195.24.341.3,2.3.954,8.16-1.534,5.4-6.221-2.182-3.708-6.5-5.313-10.653-5.313" transform="translate(-436.029 -301.366)" fill="#393939" fill-rule="evenodd"/>
      <path id="Path_7344" data-name="Path 7344" d="M1208.734,372.973c5.286-1.672,10.261-2.207,14.769-3.6a.668.668,0,0,0,.432-.53c.491-5.5-2.2-11.8-11.265-11.8-7.765,0-14,4.544-14,12.722,0,8.211,6.28,12.779,14.069,12.779,4.17,0,8.479-1.176,11.254-4.463a.5.5,0,0,0,.008-.633.487.487,0,0,0-.624-.113,11.225,11.225,0,0,1-5.453,1.371,11.724,11.724,0,0,1-1.687-.113c-3.148-.454-6.426-2.345-7.464-5.509a.54.54,0,0,1-.033-.105m-.965-3.521a14.111,14.111,0,0,1,.179-5.656c.332-1.225,1.014-2.718,2.28-3.221a1.812,1.812,0,0,1,.34-.105c2.613-.617,4.284,1.9,4.852,4.1a7.878,7.878,0,0,1,.243,2.385Z" transform="translate(-1039.512 -309.632)" fill="#393939" fill-rule="evenodd"/>
      <path id="Path_7345" data-name="Path 7345" d="M1137.955,79.483c5.286-1.672,10.261-2.207,14.769-3.6a.668.668,0,0,0,.432-.53c.491-5.5-2.2-11.8-11.265-11.8-7.765,0-14,4.544-14,12.722,0,8.211,6.28,12.779,14.069,12.779,4.17,0,8.479-1.176,11.254-4.463a.5.5,0,0,0,.008-.633.487.487,0,0,0-.624-.113,11.224,11.224,0,0,1-5.453,1.371,11.716,11.716,0,0,1-1.687-.113c-3.148-.454-6.426-2.345-7.464-5.509a.532.532,0,0,1-.033-.105m-.965-3.521a14.109,14.109,0,0,1,.179-5.656c.332-1.225,1.014-2.718,2.28-3.221a1.805,1.805,0,0,1,.341-.105c2.613-.617,4.284,1.9,4.852,4.1a7.862,7.862,0,0,1,.243,2.385Z" transform="translate(-978.131 -55.11)" fill="#393939" fill-rule="evenodd"/>
      <path id="Path_7346" data-name="Path 7346" d="M714.489,287.133a.461.461,0,0,0-.2-.389.5.5,0,0,0-.43-.09l-8.292,2.264c-.008,0-.008,0-.016.008l-1.72.536a.486.486,0,0,0-.316.3.476.476,0,0,0,.04.43c1.779,2.951,1.647,2.378,1.647,5.822v17.016c0,3.615-.022,3.578-1.371,6.931a.515.515,0,0,0,.049.462.5.5,0,0,0,.413.219h11.1a.5.5,0,0,0,.413-.219.514.514,0,0,0,.049-.462c-1.355-3.368-1.371-3.329-1.371-6.959Z" transform="translate(-610.08 -248.58)" fill="#393939" fill-rule="evenodd"/>
      <path id="Path_7347" data-name="Path 7347" d="M815.993,382.538c7.805,0,14.118-4.536,14.118-12.779,0-8.219-6.354-12.722-14.118-12.722s-14.07,4.535-14.07,12.722c0,8.211,6.28,12.779,14.07,12.779m1.7-20.22a16.556,16.556,0,0,1,3.148,13.412c-.349,1.346-1.135,3.026-2.629,3.375s-2.945-.8-3.854-1.85a16.527,16.527,0,0,1-3.157-13.412c.349-1.347,1.136-3.027,2.629-3.375s2.945.8,3.862,1.85" transform="translate(-695.448 -309.631)" fill="#393939" fill-rule="evenodd"/>
      <path id="Path_7348" data-name="Path 7348" d="M966.346,96.075a.5.5,0,0,0,.462.673h11.1a.5.5,0,0,0,.413-.219.489.489,0,0,0,.04-.477A12.185,12.185,0,0,1,977,91.028V81.413a1.662,1.662,0,0,1,.049-.389c.309-1.29,1.931-2.029,3.107-2.24a5.243,5.243,0,0,1,4.779,1.476.473.473,0,0,0,.535.114c1.695-.635,2.89-6.437.059-8.069-3.389-1.951-6.374,1.229-8.529,3.212V72.91a.464.464,0,0,0-.2-.389.486.486,0,0,0-.43-.089L968.083,74.7c-.008,0-.008,0-.016.008l-1.72.535a.487.487,0,0,0-.316.3.47.47,0,0,0,.031.415,16.2,16.2,0,0,1,1.656,7.957v5.512a13.081,13.081,0,0,1-1.371,6.652" transform="translate(-837.736 -62.176)" fill="#393939" fill-rule="evenodd"/>
      <path id="Path_7349" data-name="Path 7349" d="M1037.677,359.788a17.706,17.706,0,0,0-6.834-1.222c-2.589,0-5.477.365-7.611,1.964a8.115,8.115,0,0,0-2.037,2.264,7.3,7.3,0,0,0-1.071,5.12,5.442,5.442,0,0,0,.949,2.215,11.3,11.3,0,0,0,3.123,2.718c.8.5,1.631.949,2.475,1.371.9.462,1.817.892,2.735,1.331.8.39,1.615.787,2.386,1.233.689.4,2.158,1.282,2.158,2.215,0,1.534-2.021,1.539-3.1,1.371-2.828-.442-7.021-4.048-8.995-5.995a.466.466,0,0,0-.389-.138.74.74,0,0,0-.365.2c-5.908,4.38-1.433,9.638,7.833,9.638,5.477,0,11.83-1.939,11.83-8.479,0-3.87-3.01-6.021-6.15-7.594-1.1-.544-2.215-1.031-3.326-1.534a18.581,18.581,0,0,1-2.7-1.411c-1.518-1.022-1.939-3,.413-3,2.3,0,5.161,2.962,6.71,4.487a.461.461,0,0,0,.39.138c2.857-.315,6.871-4.778,1.576-6.891" transform="translate(-883.212 -310.957)" fill="#393939" fill-rule="evenodd"/>
      <path id="Path_7350" data-name="Path 7350" d="M1403.268,312.052c0,4.69,2.6,7.1,7.254,7.1,3.473,0,6-.576,8.6-2.613a.472.472,0,0,0,.187-.381v-3.619a.491.491,0,0,0-.811-.373c-2.638,2.248-5.948,2.345-5.948-1.817V298.5l6.069,1.424a.588.588,0,0,0,.471-.041.483.483,0,0,0,.219-.413V294.6a.494.494,0,0,0-.495-.495h-6.264v-9.177a.452.452,0,0,0-.195-.389.485.485,0,0,0-.43-.09l-8.293,2.264c-.008,0-.008,0-.016.008l-1.721.536a.485.485,0,0,0-.316.3.476.476,0,0,0,.04.43l1.647,2.734Z" transform="translate(-1215.457 -246.666)" fill="#393939" fill-rule="evenodd"/>
      <path id="Path_7351" data-name="Path 7351" d="M55.051,50.967a15.838,15.838,0,0,0-.166-1.864.638.638,0,0,0-.579-.529c-.378-.022-.759-.025-1.133-.058a26.242,26.242,0,0,0-4.254,0c-.918.072-1.835.155-2.746.306l-4.808,1.1c-.68.256-1.389.5-2.084.785s-1.353.565-2.008.885c-.68.327-1.35.684-2,1.062s-1.3.774-1.925,1.195c-.6.41-.748.738-1.332,1.173-.158.119-.594.417-.759.317-.486-.3.2-1.907.2-1.907a16.7,16.7,0,0,1,2.422-3.606c1.447-1.648,3.642-3.052,10.044-5.938a53.1,53.1,0,0,1,9.612-3.268.9.9,0,0,0,.666-1.09q-.513-2.1-1.033-4.2a.891.891,0,0,0-1.065-.659,57.256,57.256,0,0,0-19.286,8.3,1.06,1.06,0,0,1-1.648-.921A12.555,12.555,0,0,1,32.6,36.493c2.08-3.894,5.83-5.574,9.681-7.3a34.015,34.015,0,0,1,6.309-2.123.9.9,0,0,0,.576-1.317q-1.123-1.992-2.246-3.977a.89.89,0,0,0-1.029-.425,44.828,44.828,0,0,0-4.614,1.63,45.625,45.625,0,0,0-8.889,4.927.892.892,0,0,1-1.407-.687,11.875,11.875,0,0,1,.889-5.06,14.048,14.048,0,0,1,4.75-5.661A20.272,20.272,0,0,1,39.9,14.364a.9.9,0,0,0,.151-1.5q-1.889-1.5-3.782-3a.906.906,0,0,0-.871-.14,14.576,14.576,0,0,0-2.073.928,15.128,15.128,0,0,0-4.848,4.25.9.9,0,0,1-1.443,0,15.128,15.128,0,0,0-4.848-4.25,14.65,14.65,0,0,0-2.076-.932.9.9,0,0,0-.864.14l-3.782,3a.9.9,0,0,0,.148,1.5A20.267,20.267,0,0,1,18.9,16.5a14.077,14.077,0,0,1,4.75,5.661,11.924,11.924,0,0,1,.889,5.056.893.893,0,0,1-1.407.691,45.625,45.625,0,0,0-8.889-4.927,44.827,44.827,0,0,0-4.614-1.63A.888.888,0,0,0,8.6,21.77q-1.128,1.992-2.253,3.987a.89.89,0,0,0,.572,1.306,34.466,34.466,0,0,1,6.316,2.127c3.851,1.728,7.6,3.408,9.681,7.3A12.607,12.607,0,0,1,24.35,42.05a1.06,1.06,0,0,1-1.648.921,57.553,57.553,0,0,0-6.449-3.739A57.481,57.481,0,0,0,3.415,34.676a.892.892,0,0,0-1.065.659q-.518,2.094-1.033,4.2a.9.9,0,0,0,.666,1.09A53.38,53.38,0,0,1,11.6,43.889c6.4,2.886,8.6,4.29,10.048,5.938a16.936,16.936,0,0,1,2.418,3.606l.248,1.447a.393.393,0,0,1-.633.374l-.007-.007a31.2,31.2,0,0,0-9.137-5.02c-.227-.076-.45-.158-.669-.241a1.932,1.932,0,0,1-.191-.119s-4.059-1.033-4.3-1c-.615-.032-1.213-.173-1.825-.227-.586-.054-1.177-.119-1.763-.151-.615-.032-1.231-.05-1.846-.047-.59,0-1.18.029-1.771.058-.345.018-.691.04-1.04.065a1.049,1.049,0,0,0-.979.914C.086,50.007.043,50.7.015,51.648A27.938,27.938,0,0,0,.7,58.755,27.286,27.286,0,0,0,3,65.067a26.971,26.971,0,0,0,3.952,5.783A27.557,27.557,0,0,0,54.058,60.09a28.085,28.085,0,0,0,.993-9.123M24.814,75.648a12.939,12.939,0,0,1-1.8-.288A23.346,23.346,0,0,1,6.78,63a22.547,22.547,0,0,1-2.116-6.366,14.869,14.869,0,0,1-.3-3.833.871.871,0,0,1,.245-.061,28.5,28.5,0,0,1,3.952.356c.158.029.313.083.479.13a6.3,6.3,0,0,1,.155,1.134A18.406,18.406,0,0,0,23.227,70.5c.522.126,1.055.205,1.587.3Zm-.23-9.242a14.218,14.218,0,0,1-10.926-11.12l0-.007a.481.481,0,0,1,.633-.547,25.471,25.471,0,0,1,4.376,2.22,27.083,27.083,0,0,1,6.15,5.326v4.175c-.079-.014-.155-.032-.23-.047m11.441-9.195a27.509,27.509,0,0,1,4.714-2.465.489.489,0,0,1,.673.522,14.2,14.2,0,0,1-3.951,7.388,14.747,14.747,0,0,1-6.672,3.682V61.7a28.269,28.269,0,0,1,5.236-4.488M50.642,55.29A23.278,23.278,0,0,1,32.782,75.209c-.655.155-1.324.256-1.994.36V70.725A18.488,18.488,0,0,0,46,53.343a.667.667,0,0,1,.526-.241,24.627,24.627,0,0,1,3.523-.338c.212,0,.425,0,.669,0a1.711,1.711,0,0,1,.076.4c-.04.713-.065,1.422-.148,2.123" transform="translate(0 -8.385)" fill="#393939"/>
    </g>
  </g>
</svg>
