<svg xmlns="http://www.w3.org/2000/svg" xmlns:xlink="http://www.w3.org/1999/xlink" width="204.272" height="69.242" viewBox="0 0 204.272 69.242">
  <defs>
    <clipPath id="clip-path">
      <rect id="Rectangle_147" data-name="Rectangle 147" width="204.272" height="69.243" fill="#393939"/>
    </clipPath>
  </defs>
  <g id="Group_224" data-name="Group 224" transform="translate(0 0)" opacity="0.785">
    <g id="Group_223" data-name="Group 223" transform="translate(0 0)" clip-path="url(#clip-path)">
      <path id="Path_7289" data-name="Path 7289" d="M67.967,13.482l5.326-1.735V44.988c0,2.931,1.315,3.587,4.665,3.705v3.474c-6.343.6-9.991-2.158-9.991-7.122ZM88.85,52.224A16.528,16.528,0,0,0,101.113,47.5L101.056,32.3c0-5.268-4.609-8.258-9.093-8.258a18.671,18.671,0,0,0-9.757,2.632l1.554,3.59c2.876-1.437,4.673-2.036,7.124-2.036,2.513,0,4.846,1.8,4.846,4.309v1.855H89.387c-5.206,0-9.457,3.29-9.576,8.734a9.249,9.249,0,0,0,9.038,9.156Zm6.761-13.7v7.9a7.951,7.951,0,0,1-4.846,1.8,5.289,5.289,0,0,1-5.21-5.208c0-2.813,2.1-4.546,5.09-4.546Zm39.368,13.281H140.6V31.7c0-4.728-4.485-7.6-8.614-7.6a15.234,15.234,0,0,0-8.318,2.336,9.53,9.53,0,0,0-6.4-2.393c-5.027.118-7.539,1.673-11.606,4.667V51.806h5.563V29.789a6.449,6.449,0,0,1,3.412-1.557c4-.238,5.62,1.735,5.62,5.387l.061,18.187h5.626V31.461a8.043,8.043,0,0,0-.18-1.673c3.83-2.694,9.213-2.335,9.213,3.83Zm38.953,0H179.5V31.461c0-3.949-3.051-6.4-6.343-7.116a17.16,17.16,0,0,0-8.376.476,21.807,21.807,0,0,0-7.236,3.89V51.806H163.1v-21.9a10.3,10.3,0,0,1,5.145-1.733c3.468-.062,5.682,1.853,5.682,5.383Zm18.073.419A16.546,16.546,0,0,0,204.272,47.5L204.21,32.3c0-5.268-4.608-8.258-9.093-8.258a18.661,18.661,0,0,0-9.754,2.632l1.554,3.59c2.874-1.437,4.67-2.036,7.121-2.036,2.514,0,4.847,1.8,4.847,4.309v1.855h-6.344c-5.2,0-9.454,3.29-9.573,8.734a9.249,9.249,0,0,0,9.037,9.156Zm6.761-13.7v7.9a7.94,7.94,0,0,1-4.846,1.8,5.29,5.29,0,0,1-5.207-5.208c0-2.813,2.1-4.546,5.088-4.546ZM146.319,51.806h5.565V23.684l-5.626,1.855Zm5.565-40.119-5.626,1.856v7.179l5.626-1.854ZM43.178,26.316c0,1.369.764,2.208,2.288,2.967,1.677.76,3.883,1.607,5.942,2.367.816.331,1.644.673,2.462,1.039v-9.58a12.428,12.428,0,0,0-4.979-1.143c-2.971,0-5.713,1.524-5.713,4.351M22.372,8.207c0-3.2-2.972-5.485-6.172-5.485A16.588,16.588,0,0,0,8.863,4.508v7.169a13.855,13.855,0,0,1,5.432-1.1h8.078ZM47.143,52.9a19.546,19.546,0,0,1-11.138-4.008l2.3-4.83a14.4,14.4,0,0,0,8.761,3.281c3.323,0,6.543-1.46,6.806-4.468v-.827c-.3-2.456-2.864-3.27-4.9-4-.988-.377-2.055-.839-3.046-1.291C41.2,34.994,36.474,33.171,36.474,27c0-6.934,6.172-10.592,12.195-10.592a16.228,16.228,0,0,1,5.2.889V0H25.326a9.8,9.8,0,0,1,3.83,7.906l.074,19.35a21.071,21.071,0,0,1-15.618,6.018v.079a11.771,11.771,0,0,1-4.748-1.159V60.379h6.876V42.5a19.519,19.519,0,0,1,8.233-5.561,20.307,20.307,0,0,1,12.344-.909c-1.072,2.284-1.985,3.955-2.82,5.859a16.038,16.038,0,0,0-3.585-.452,10.664,10.664,0,0,0-7.16,2.513V60.379H53.87V51.573A17.592,17.592,0,0,1,47.143,52.9M9.419,21.541a6.73,6.73,0,0,0,6.628,6.632,10.106,10.106,0,0,0,6.171-2.289V15.829L15.9,15.751c-3.811,0-6.476,2.211-6.476,5.79M5.227,64.014V3.641L0,8.861V69.243H45.012l5.269-5.228Z" transform="translate(0 0)" fill="#393939"/>
    </g>
  </g>
</svg>
