<svg xmlns="http://www.w3.org/2000/svg" xmlns:xlink="http://www.w3.org/1999/xlink" width="302.561" height="79.166" viewBox="0 0 302.561 79.166">
  <defs>
    <clipPath id="clip-path">
      <rect id="Rectangle_149" data-name="Rectangle 149" width="302.561" height="79.166" fill="#393939"/>
    </clipPath>
  </defs>
  <g id="Group_228" data-name="Group 228" transform="translate(0 0)" opacity="0.785">
    <g id="Group_227" data-name="Group 227" transform="translate(0 0)" clip-path="url(#clip-path)">
      <path id="Path_7317" data-name="Path 7317" d="M5.209,20.1h.5A16.15,16.15,0,0,1,17.19,10.13s-4.206,2.962-5.724,7.012a3.617,3.617,0,0,1,1.167-.115A3.1,3.1,0,0,1,14.841,18c1.866-6.465,6.288-7.887,6.288-7.887a42.466,42.466,0,0,0-.719,7.255,3.4,3.4,0,0,1,2.129-.668,3.1,3.1,0,0,1,1.945.632,42.74,42.74,0,0,0-.725-7.212s4.424,1.423,6.291,7.888a3.427,3.427,0,0,1,2.4-.971,3.109,3.109,0,0,1,.969.078c-1.53-4.037-5.714-6.982-5.714-6.982A16.45,16.45,0,0,1,39.2,20.1h.5c-.131-1.8,1.733-2.772,2.224-2.9-1.012-2.167-5.136-8.795-17.948-9.357A3.232,3.232,0,0,0,24.5,6.227,1.884,1.884,0,0,0,22.851,4.3V2.59h1.483V1.715H22.851V0h-.877V1.715H20.53V2.59h1.445V4.306a1.878,1.878,0,0,0-1.657,1.922,3.271,3.271,0,0,0,.516,1.618C7.992,8.408,3.971,15.051,2.97,17.2a3.8,3.8,0,0,1,1.547,1.025A2.329,2.329,0,0,1,5.209,20.1" transform="translate(0.474 0)" fill="#393939"/>
      <path id="Path_7318" data-name="Path 7318" d="M2.633,29.4H42.4c0-.028.064-1.392.23-2.855H2.4c.166,1.463.226,2.827.23,2.855" transform="translate(0.384 4.239)" fill="#393939"/>
      <path id="Path_7319" data-name="Path 7319" d="M42.135,15.751A2.314,2.314,0,0,0,41.078,18.5a2.982,2.982,0,0,0-2,.467,2.057,2.057,0,0,0-.6,1.5A2.06,2.06,0,0,0,40.486,22.8a2.49,2.49,0,0,1-2.672,1.655H37.8a2.751,2.751,0,0,1-2.76-1.771,2.208,2.208,0,0,0,2.243-2.09,1.9,1.9,0,0,0-.523-1.516,2.991,2.991,0,0,0-1.92-.722,3.133,3.133,0,0,0-.048-1.8A1.825,1.825,0,0,0,32.969,15.5c-1.706.039-2.158,1.045-2.261,1.538a4.028,4.028,0,0,0,.108,1.475,3.005,3.005,0,0,0-1.843.758,2.051,2.051,0,0,0,.153,2.826,2.934,2.934,0,0,0,1.883.564,2.046,2.046,0,0,1-.582,1.095,3.182,3.182,0,0,1-2.355.713c-2.355-.052-2.9-1.345-3.019-1.879a2.346,2.346,0,0,0,1.607-.431,1.955,1.955,0,0,0,.645-1.6,1.836,1.836,0,0,0-.557-1.388,3.03,3.03,0,0,0-1.855-.688,2.637,2.637,0,0,0,.056-2.214A2.134,2.134,0,0,0,23,15.164a2.309,2.309,0,0,0-2.3,1.428,3.014,3.014,0,0,0,.189,1.888,3.033,3.033,0,0,0-1.855.688,1.836,1.836,0,0,0-.557,1.388,1.951,1.951,0,0,0,.645,1.6,2.339,2.339,0,0,0,1.607.431c-.124.533-.663,1.879-3.019,1.879s-2.891-1.552-2.936-1.808a2.941,2.941,0,0,0,1.883-.564,2.048,2.048,0,0,0,.148-2.826,2.987,2.987,0,0,0-1.825-.758,4.2,4.2,0,0,0,.188-1.251,2,2,0,0,0-.492-1.062,2.238,2.238,0,0,0-1.625-.71,2.1,2.1,0,0,0-1.578.453,2.144,2.144,0,0,0-.63,1.187,3.547,3.547,0,0,0,.1,1.227,3,3,0,0,0-1.923.722,1.9,1.9,0,0,0-.522,1.516,2.207,2.207,0,0,0,2.239,2.09,2.782,2.782,0,0,1-2.757,1.771H7.965A2.487,2.487,0,0,1,5.295,22.8a2.252,2.252,0,0,0,1.379-.56A2.26,2.26,0,0,0,7.3,20.469a2.381,2.381,0,0,0-.1-.658c-.487-1.625-2.484-1.31-2.484-1.31a2.412,2.412,0,0,0-.3-2.015C2.785,14.392.06,15.313.06,15.313l.083.233a61.029,61.029,0,0,1,2.5,11.692h40.5a60.59,60.59,0,0,1,2.5-11.692l.081-.233a4.485,4.485,0,0,0-3.583.438" transform="translate(0.01 2.413)" fill="#393939"/>
      <path id="Path_7320" data-name="Path 7320" d="M0,28.48l.065.884c.016.082.934,9.958,1.262,16.166.032.705.065,1.441.1,2.2.23,6.093.508,13.66,5.57,19.294,4.733,5.273,9.466,7.551,15.854,7.6h.2c6.371-.049,11.121-2.326,15.854-7.6,5.046-5.635,5.34-13.2,5.57-19.294.032-.754.049-1.49.1-2.178.278-5.373,1.016-13.415,1.245-16.052l.081-1.015Zm43.338,17c-.049.7-.066,1.441-.1,2.2-.23,5.9-.508,13.217-5.257,18.541-4.488,4.978-8.96,7.14-14.938,7.174h-.2c-5.994-.034-10.466-2.2-14.936-7.174C3.144,60.909,2.866,53.572,2.653,47.692c-.034-.836-.066-1.556-.1-2.211-.278-5.47-1.048-13.643-1.228-15.773H44.55c-.246,2.964-.95,10.581-1.212,15.773" transform="translate(0 4.547)" fill="#393939"/>
      <path id="Path_7321" data-name="Path 7321" d="M1.144,29.539c.18,2.129.95,10.3,1.228,15.773.034.655.066,1.377.1,2.211.213,5.881.492,13.218,5.258,18.524,4.472,4.98,8.942,7.141,14.938,7.174h.2c5.978-.032,10.45-2.194,14.938-7.174,4.75-5.323,5.028-12.644,5.258-18.541.032-.754.049-1.49.1-2.2.262-5.192.967-12.807,1.212-15.773ZM7.582,48.025s-.29-3.881-.654-5.623c-.411-1.958-1.3-5.119-1.3-5.119s2.7-.211,2.207,2.1c0,0,1.764-.366,1.792,1.375S8.235,42.44,8.235,42.44a2.157,2.157,0,0,0,1.958,1.349,2.141,2.141,0,0,0,2.2-1.469,1.54,1.54,0,0,1-1.72-1.559,1.3,1.3,0,0,1,1.6-1.245s-.9-2.443,1.169-2.443,1.169,2.443,1.169,2.443a1.3,1.3,0,0,1,1.6,1.245A1.542,1.542,0,0,1,14.5,42.32a2.241,2.241,0,0,0,4.161.121s-1.417.063-1.387-1.679,1.792-1.375,1.792-1.375c-.615-2.323,2.206-2.1,2.206-2.1s-.9,3.161-1.3,5.119c-.364,1.742-.943,5.623-.943,5.623H7.582ZM29.7,57.966c-.388,1.869-1.005,5.692-1.005,5.692H16.311a51.287,51.287,0,0,0-.582-5.692c-.438-2.094-1.4-5.479-1.4-5.479s2.9-.228,2.363,2.25c0,0,1.888-.391,1.918,1.474s-1.486,1.8-1.486,1.8a2.4,2.4,0,0,0,4.458-.132,1.647,1.647,0,0,1-1.844-1.668,1.4,1.4,0,0,1,1.717-1.336s-.956-2.619,1.255-2.616,1.252,2.616,1.252,2.616a1.4,1.4,0,0,1,1.721,1.336,1.649,1.649,0,0,1-1.846,1.668,2.4,2.4,0,0,0,4.459.132s-1.516.066-1.486-1.8,1.919-1.474,1.919-1.474c-.659-2.489,2.363-2.25,2.363-2.25s-.957,3.385-1.4,5.479M38.5,42.4c-.364,1.743-.943,5.624-.943,5.624H26.116s-.29-3.881-.654-5.624c-.407-1.959-1.3-5.12-1.3-5.12s2.7-.211,2.206,2.1c0,0,1.762-.368,1.793,1.374s-1.388,1.679-1.388,1.679a2.241,2.241,0,0,0,4.161-.121,1.544,1.544,0,0,1-1.723-1.559,1.3,1.3,0,0,1,1.6-1.247s-.893-2.443,1.172-2.443,1.168,2.443,1.168,2.443a1.3,1.3,0,0,1,1.6,1.247,1.543,1.543,0,0,1-1.722,1.559,2.138,2.138,0,0,0,2.206,1.468A2.161,2.161,0,0,0,37.2,42.44s-1.417.064-1.387-1.679S37.6,39.387,37.6,39.387c-.612-2.324,2.207-2.1,2.207-2.1s-.894,3.161-1.3,5.12" transform="translate(0.183 4.716)" fill="#393939"/>
      <path id="Path_7322" data-name="Path 7322" d="M53.963,35.521V15.9H66.336v3.6H57.808v4.483h7.721v3.4H57.808v4.539h8.528v3.6Z" transform="translate(8.616 2.538)" fill="#393939"/>
      <path id="Path_7323" data-name="Path 7323" d="M66.819,34.747V21.128h3.538v1.663a4.721,4.721,0,0,1,4.011-2.049,4.249,4.249,0,0,1,4.069,2.268,4.768,4.768,0,0,1,4.345-2.268c2.537,0,4.961,1.523,4.961,5.177v8.829H84.149V26.664a2.278,2.278,0,0,0-2.424-2.573,2.506,2.506,0,0,0-2.534,2.685v7.972H75.513V26.664a2.292,2.292,0,0,0-2.425-2.573,2.5,2.5,0,0,0-2.563,2.685v7.972Z" transform="translate(10.668 3.312)" fill="#393939"/>
      <path id="Path_7324" data-name="Path 7324" d="M93.928,24.893c-1.867,0-3.428,1.357-3.428,3.848,0,2.464,1.561,3.874,3.428,3.874,1.9,0,3.4-1.382,3.4-3.874s-1.5-3.848-3.4-3.848M86.909,35.577V15.536h3.647v7.919A4.895,4.895,0,0,1,94.71,21.6c4.011,0,6.326,3.072,6.326,7.113,0,4.126-2.565,7.2-6.466,7.2A4.653,4.653,0,0,1,90.5,33.917v1.661Z" transform="translate(13.876 2.48)" fill="#393939"/>
      <path id="Path_7325" data-name="Path 7325" d="M108.766,29.244v-.608l-3.094.469a1.725,1.725,0,0,0-1.7,1.716,1.6,1.6,0,0,0,1.784,1.578c1.561,0,3.009-.748,3.009-3.155m-4.4-2.326,3.372-.5c.779-.11,1.032-.5,1.032-.968,0-.969-.754-1.772-2.315-1.772a2.429,2.429,0,0,0-2.619,2.214l-3.288-.691c.223-2.13,2.2-4.484,5.878-4.484,4.345,0,5.965,2.435,5.965,5.176v6.7a15.156,15.156,0,0,0,.166,2.158h-3.4a9.152,9.152,0,0,1-.138-1.633,4.594,4.594,0,0,1-4.04,2.02c-2.926,0-4.709-1.964-4.709-4.095,0-2.435,1.811-3.8,4.095-4.126" transform="translate(16.009 3.308)" fill="#393939"/>
      <path id="Path_7326" data-name="Path 7326" d="M115.559,30.267a2.275,2.275,0,0,0,2.51,2.077c1.223,0,1.808-.635,1.808-1.357,0-.61-.416-1.106-1.474-1.328l-1.811-.416c-2.649-.581-3.848-2.158-3.848-4.068,0-2.438,2.176-4.457,5.128-4.457,3.9,0,5.209,2.462,5.377,3.931l-3.094.689a2.081,2.081,0,0,0-2.256-1.826c-.976,0-1.756.583-1.756,1.358,0,.663.5,1.08,1.255,1.218l1.949.415c2.705.554,4.069,2.187,4.069,4.181,0,2.214-1.729,4.484-5.321,4.484-4.126,0-5.547-2.657-5.714-4.208Z" transform="translate(17.943 3.308)" fill="#393939"/>
      <path id="Path_7327" data-name="Path 7327" d="M126.261,30.267a2.277,2.277,0,0,0,2.509,2.077c1.223,0,1.808-.635,1.808-1.357,0-.61-.416-1.106-1.476-1.328l-1.809-.416c-2.649-.581-3.844-2.158-3.844-4.068,0-2.438,2.172-4.457,5.125-4.457,3.9,0,5.209,2.462,5.377,3.931l-3.094.689a2.081,2.081,0,0,0-2.256-1.826c-.976,0-1.756.583-1.756,1.358,0,.663.5,1.08,1.255,1.218l1.949.415c2.7.554,4.069,2.187,4.069,4.181,0,2.214-1.729,4.484-5.321,4.484-4.126,0-5.547-2.657-5.714-4.208Z" transform="translate(19.652 3.308)" fill="#393939"/>
      <path id="Path_7328" data-name="Path 7328" d="M135.439,40.064l3.232-7.087-5.825-11.9H137l3.651,7.97,3.369-7.97h3.958l-8.609,18.988Z" transform="translate(21.211 3.365)" fill="#393939"/>
      <path id="Path_7329" data-name="Path 7329" d="M161.065,27.942c0-2.574-1.67-3.877-3.482-3.877s-3.482,1.3-3.482,3.877c0,2.547,1.671,3.877,3.482,3.877s3.482-1.3,3.482-3.877m3.706,0a7.188,7.188,0,1,1-14.376,0,7.188,7.188,0,1,1,14.376,0" transform="translate(24.012 3.308)" fill="#393939"/>
      <path id="Path_7330" data-name="Path 7330" d="M169.257,20.492v1.5h3.094v3.155h-3.094V35.6h-3.733V25.143h-2.286V21.988h2.286v-1.55a4.707,4.707,0,0,1,4.984-5.065,5.432,5.432,0,0,1,1.843.277v3.1a4.2,4.2,0,0,0-1.172-.138,1.74,1.74,0,0,0-1.922,1.882" transform="translate(26.063 2.454)" fill="#393939"/>
      <path id="Path_7331" data-name="Path 7331" d="M188.648,21.683a3.368,3.368,0,0,0-3.6-2.766c-1.867,0-3.092,1.189-3.092,2.489,0,1.08.7,1.938,2.144,2.213l2.76.528c3.595.693,5.515,3.019,5.515,5.786,0,3.019-2.536,6.062-7.133,6.062-5.238,0-7.548-3.348-7.858-6.144l3.569-.943a3.953,3.953,0,0,0,4.316,3.682c2.062,0,3.2-1.023,3.2-2.409,0-1.133-.863-2.02-2.4-2.325l-2.757-.554c-3.148-.635-5.184-2.656-5.184-5.617,0-3.487,3.15-6.144,6.884-6.144,4.791,0,6.63,2.879,7.077,5.092Z" transform="translate(28.322 2.481)" fill="#393939"/>
      <path id="Path_7332" data-name="Path 7332" d="M203.9,21.075l2.953,8.774,2.537-8.774h3.676l-4.288,13.619h-3.709l-3.2-9.3-3.146,9.3H194.96l-4.373-13.619h3.9l2.534,8.746L200,21.075Z" transform="translate(30.429 3.365)" fill="#393939"/>
      <path id="Path_7333" data-name="Path 7333" d="M219.92,26.392a2.75,2.75,0,0,0-3.067-2.685,2.956,2.956,0,0,0-3.063,2.685Zm3.455,4.457a6.171,6.171,0,0,1-6.24,4.317,6.919,6.919,0,0,1-7.077-7.279,6.858,6.858,0,0,1,6.741-7.17c4.236,0,6.771,2.685,6.771,7.059,0,.526-.055,1.078-.055,1.134h-9.807a3.328,3.328,0,0,0,3.455,3.1,3.023,3.023,0,0,0,3.118-2.076Z" transform="translate(33.538 3.308)" fill="#393939"/>
      <path id="Path_7334" data-name="Path 7334" d="M230.122,32.618c1.893,0,3.37-1.438,3.37-3.9,0-2.434-1.477-3.791-3.37-3.791s-3.4,1.382-3.4,3.819,1.448,3.877,3.4,3.877m6.964.5c0,.913.056,1.91.112,2.463h-3.54A9.479,9.479,0,0,1,233.52,34a4.31,4.31,0,0,1-3.845,1.912c-3.9,0-6.688-3.046-6.688-7.171,0-3.986,2.7-7.113,6.576-7.113,2.37,0,3.484.969,3.872,1.69v-7.78h3.651Z" transform="translate(35.603 2.481)" fill="#393939"/>
      <path id="Path_7335" data-name="Path 7335" d="M246.642,26.392a2.754,2.754,0,0,0-3.067-2.685,2.956,2.956,0,0,0-3.063,2.685Zm3.455,4.457a6.171,6.171,0,0,1-6.24,4.317,6.919,6.919,0,0,1-7.077-7.279,6.858,6.858,0,0,1,6.741-7.17c4.236,0,6.77,2.685,6.77,7.059,0,.526-.056,1.078-.056,1.134h-9.808a3.331,3.331,0,0,0,3.455,3.1A3.025,3.025,0,0,0,247,29.934Z" transform="translate(37.805 3.308)" fill="#393939"/>
      <path id="Path_7336" data-name="Path 7336" d="M253.822,34.743h-3.706V21.124h3.6v1.691a4.557,4.557,0,0,1,3.956-2.049c3.4,0,4.958,2.407,4.958,5.395v8.583h-3.7V26.8a2.4,2.4,0,0,0-2.534-2.712,2.569,2.569,0,0,0-2.565,2.823Z" transform="translate(39.934 3.315)" fill="#393939"/>
      <path id="Path_7337" data-name="Path 7337" d="M66.766,55.363a6.119,6.119,0,0,1-1.435,2.458,4.371,4.371,0,0,1-1.755,1.008,10.277,10.277,0,0,1-3.035.356H56.365V44.341h4.11a10.178,10.178,0,0,1,3.349.4,5.059,5.059,0,0,1,2.447,2.194,9,9,0,0,1,1.008,4.685,11.969,11.969,0,0,1-.513,3.746m.1-11.645A6.64,6.64,0,0,0,64,42.326a16.452,16.452,0,0,0-3.484-.279H53.778V61.479h7.058a13.38,13.38,0,0,0,3.142-.332,7.277,7.277,0,0,0,2.336-.974,7.052,7.052,0,0,0,1.78-1.763,9.455,9.455,0,0,0,1.335-2.83,13.49,13.49,0,0,0,.521-3.923,12.934,12.934,0,0,0-.768-4.62,7.911,7.911,0,0,0-2.315-3.32" transform="translate(8.586 6.713)" fill="#393939"/>
      <path id="Path_7338" data-name="Path 7338" d="M78.078,57.884a4.18,4.18,0,0,1-5.965.007,5.28,5.28,0,0,1-1.187-3.76,5.253,5.253,0,0,1,1.188-3.753,4.182,4.182,0,0,1,5.957.007,5.116,5.116,0,0,1,1.2,3.673,5.4,5.4,0,0,1-1.187,3.826M75.1,47.3a6.946,6.946,0,0,0-4.457,1.451,6.464,6.464,0,0,0-2.188,5.377A6.217,6.217,0,0,0,75.1,60.959a7.412,7.412,0,0,0,3.421-.8,5.585,5.585,0,0,0,2.39-2.244,8.07,8.07,0,0,0,.821-3.968,6.409,6.409,0,0,0-1.857-4.878A6.638,6.638,0,0,0,75.1,47.3" transform="translate(10.93 7.552)" fill="#393939"/>
      <path id="Path_7339" data-name="Path 7339" d="M90.988,48.59a6.059,6.059,0,0,0-2.736-.58,5.53,5.53,0,0,0-4.243,1.82V41.662h-2.4v19.88h2.4V54.3a6.047,6.047,0,0,1,.4-2.441,3,3,0,0,1,1.342-1.4,4.105,4.105,0,0,1,2.006-.518,3.022,3.022,0,0,1,2.209.767,3.313,3.313,0,0,1,.779,2.449v8.386h2.4V53.157a6.932,6.932,0,0,0-.5-2.965,3.518,3.518,0,0,0-1.661-1.6" transform="translate(13.03 6.652)" fill="#393939"/>
      <path id="Path_7340" data-name="Path 7340" d="M102.159,54.868a5.543,5.543,0,0,1-.351,2.242,3.44,3.44,0,0,1-1.44,1.549,4.376,4.376,0,0,1-2.239.567,2.781,2.781,0,0,1-1.931-.6,1.934,1.934,0,0,1-.66-1.494,1.966,1.966,0,0,1,.3-1.065,1.915,1.915,0,0,1,.86-.728,8.064,8.064,0,0,1,1.9-.448,15.658,15.658,0,0,0,3.559-.847Zm2.267,5.8-.066-6.93V52.154c0-.489-.008-.9-.026-1.244v-.063a3.818,3.818,0,0,0-.194-1.2l-.013-.031A3.563,3.563,0,0,0,103.86,49l-.02-.046v0a2.979,2.979,0,0,0-.263-.4,3.518,3.518,0,0,0-1.513-1,7.471,7.471,0,0,0-2.675-.4,8.322,8.322,0,0,0-2.917.469,4.2,4.2,0,0,0-1.925,1.331,5.518,5.518,0,0,0-.954,2.272l2.129.3A3.4,3.4,0,0,1,96.8,49.571a3.755,3.755,0,0,1,2.268-.555,3.579,3.579,0,0,1,2.482.761,2.253,2.253,0,0,1,.605,1.574v.942a19.5,19.5,0,0,1-3.885.771,14.974,14.974,0,0,0-1.938.336,5.207,5.207,0,0,0-1.567.735,3.633,3.633,0,0,0-1.126,1.288,3.7,3.7,0,0,0-.429,1.774,3.561,3.561,0,0,0,1.138,2.721,4.586,4.586,0,0,0,3.255,1.065,6.531,6.531,0,0,0,2.4-.436,7.823,7.823,0,0,0,2.149-1.341v1.459h.231l.008.02h1.917l-.007-.02Z" transform="translate(14.883 7.53)" fill="#393939"/>
    </g>
  </g>
</svg>
