<svg xmlns="http://www.w3.org/2000/svg" xmlns:xlink="http://www.w3.org/1999/xlink" width="139" height="111.53" viewBox="0 0 139 111.53">
  <defs>
    <clipPath id="clip-path">
      <rect id="Rectangle_146" data-name="Rectangle 146" width="139" height="111.53" fill="#393939"/>
    </clipPath>
  </defs>
  <g id="Group_222" data-name="Group 222" opacity="0.785">
    <g id="Group_221" data-name="Group 221" clip-path="url(#clip-path)">
      <path id="Path_7275" data-name="Path 7275" d="M353.051,181.414h29.772a6.437,6.437,0,1,0,0-12.874H366.768l-2.062,3.116h18.118a3.323,3.323,0,1,1,0,6.647H353.06V168.54h-3.066v12.817c0,2.139-2.409,3.74-5.73,3.74h-2.92l-.709,3.064h3.629c5.071,0,8.759-2.867,8.787-6.747" transform="translate(-295.095 -146.008)" fill="#393939"/>
      <path id="Path_7276" data-name="Path 7276" d="M619.8,280.923a2.176,2.176,0,1,0-2.18,2.178,2.18,2.18,0,0,0,2.18-2.178" transform="translate(-533.167 -241.479)" fill="#393939"/>
      <path id="Path_7277" data-name="Path 7277" d="M887.236,280.923a2.177,2.177,0,1,0,2.178-2.178,2.18,2.18,0,0,0-2.178,2.178" transform="translate(-768.621 -241.479)" fill="#393939"/>
      <path id="Path_7278" data-name="Path 7278" d="M853.157,280.923a2.18,2.18,0,1,0,2.178-2.178,2.18,2.18,0,0,0-2.178,2.178" transform="translate(-739.098 -241.479)" fill="#393939"/>
      <path id="Path_7279" data-name="Path 7279" d="M681.648,105.71h47.346V81.153h-3.059V102.6H711.171V92.836H708.11V102.6H684.723a7.318,7.318,0,0,1-3.075,3.112" transform="translate(-590.518 -70.304)" fill="#393939"/>
      <path id="Path_7280" data-name="Path 7280" d="M342.123,380.509h9.963v-1.357a1.454,1.454,0,0,0-1.455-1.453h-6.98V365.841a1.458,1.458,0,0,0-1.455-1.456h-1.56v14.633a1.492,1.492,0,0,0,1.488,1.49" transform="translate(-295.095 -315.671)" fill="#393939"/>
      <path id="Path_7281" data-name="Path 7281" d="M450.74,367.487A1.485,1.485,0,0,0,452.222,366v-1.613h-10.11a1.493,1.493,0,0,0-1.488,1.49v13.142a1.49,1.49,0,0,0,1.488,1.49h10.11v-1.5a1.484,1.484,0,0,0-1.482-1.486h-7.1v-3.57h5.213a1.454,1.454,0,0,0,1.455-1.458v-.033a1.488,1.488,0,0,0-1.482-1.49h-5.187v-3.487Z" transform="translate(-381.717 -315.671)" fill="#393939"/>
      <path id="Path_7282" data-name="Path 7282" d="M963.085,367.487a1.488,1.488,0,0,0,1.49-1.488v-1.613h-10.1a1.49,1.49,0,0,0-1.493,1.49v13.142a1.487,1.487,0,0,0,1.493,1.49h10.1v-1.5a1.487,1.487,0,0,0-1.49-1.486H956v-3.57H961.2a1.462,1.462,0,0,0,1.458-1.458v-.033a1.494,1.494,0,0,0-1.492-1.49H956v-3.487Z" transform="translate(-825.576 -315.671)" fill="#393939"/>
      <path id="Path_7283" data-name="Path 7283" d="M546.094,364.385v14.668a1.458,1.458,0,0,0,1.455,1.455H549.1V365.84a1.453,1.453,0,0,0-1.453-1.455Z" transform="translate(-473.086 -315.67)" fill="#393939"/>
      <path id="Path_7284" data-name="Path 7284" d="M592.334,374.885a4.576,4.576,0,0,1-3.581-1.663,1.451,1.451,0,0,0-1.774-.323l-1.451.772a5.946,5.946,0,0,0,2.54,2.983,7.191,7.191,0,0,0,3.884.945c5.241,0,6.954-2.326,6.954-4.988,0-4.2-3.681-4.792-5.226-5.084-2.219-.414-4.364-.414-4.364-2.258,0-1.757,2.3-2.1,3.105-2.1a4.27,4.27,0,0,1,2.791,1.233,1.458,1.458,0,0,0,1.6.242l1.7-.8c-.355-.862-2.106-3.308-6.326-3.308-4.975,0-6.005,3.572-6.005,4.888,0,2.529,1.752,4.148,5.532,4.6s3.976,1.6,3.976,2.546c-.02,1.9-2.455,2.313-3.354,2.313" transform="translate(-507.248 -312.333)" fill="#393939"/>
      <path id="Path_7285" data-name="Path 7285" d="M703.9,364.385h-1.606v10.033c.181,2.191,1.451,6.518,7.055,6.518s7.057-4.336,7.057-6.518V364.385h-1.549a1.471,1.471,0,0,0-1.471,1.468v8.325a3.742,3.742,0,0,1-3.893,3.886,4.027,4.027,0,0,1-4.13-3.886v-8.325a1.466,1.466,0,0,0-1.462-1.468" transform="translate(-608.404 -315.67)" fill="#393939"/>
      <path id="Path_7286" data-name="Path 7286" d="M845.956,372.863a6.244,6.244,0,0,0,.722-3.391,7.5,7.5,0,0,0-.917-2.789,4.568,4.568,0,0,0-1.512-1.394,4.794,4.794,0,0,0-1.737-.7,15.31,15.31,0,0,0-2.871-.207h-4.8a1.46,1.46,0,0,0-1.462,1.464v14.659h1.551a1.465,1.465,0,0,0,1.464-1.462l.017-11.757h2.826a6.706,6.706,0,0,1,3.43.611,2.329,2.329,0,0,1,.921,2.1,2.079,2.079,0,0,1-.853,1.911,7.417,7.417,0,0,1-3.5.548h-.214a1.462,1.462,0,0,0-1.462,1.464v1.318h1.831l4.77,5.267h3.709l-4.929-5.545a4.583,4.583,0,0,0,3.018-2.1" transform="translate(-721.96 -315.671)" fill="#393939"/>
      <path id="Path_7287" data-name="Path 7287" d="M13.932,0A13.945,13.945,0,0,0,0,13.926V56.941A17.95,17.95,0,0,0,17.932,74.867h9.933V13.926A13.945,13.945,0,0,0,13.932,0" fill="#393939"/>
      <path id="Path_7288" data-name="Path 7288" d="M325.991,625.877H265.67v9.929a17.812,17.812,0,0,0,2.544,9.2c.1.166.238.378.355.55h0a17.951,17.951,0,0,0,10.79,7.659c.132-.177.259-.358.388-.537q-.192.271-.388.537a17.31,17.31,0,0,0,4.233.519h42.4a13.928,13.928,0,0,0,0-27.856m-42.061,19.7q-.2.412-.4.817c.135-.271.269-.542.4-.817m-.667,1.345-.082.157.082-.157" transform="translate(-230.152 -542.203)" fill="#393939"/>
    </g>
  </g>
</svg>
