<svg xmlns="http://www.w3.org/2000/svg" xmlns:xlink="http://www.w3.org/1999/xlink" width="269.74" height="102.102" viewBox="0 0 269.74 102.102">
  <defs>
    <clipPath id="clip-path">
      <rect id="Rectangle_159" data-name="Rectangle 159" width="269.74" height="102.102" fill="#393939"/>
    </clipPath>
  </defs>
  <g id="Group_232" data-name="Group 232" opacity="0.785">
    <g id="Group_231" data-name="Group 231" clip-path="url(#clip-path)">
      <path id="Path_7352" data-name="Path 7352" d="M246.71,159.608a13.865,13.865,0,0,1-5.417-5.195,15.179,15.179,0,0,1,.02-14.952,14.009,14.009,0,0,1,5.437-5.195,15.937,15.937,0,0,1,7.741-1.88,16.133,16.133,0,0,1,6.343,1.212,12.948,12.948,0,0,1,4.853,3.516l-3.4,3.194a9.9,9.9,0,0,0-7.56-3.314,10.586,10.586,0,0,0-5.21,1.273,9.153,9.153,0,0,0-3.6,3.536,10.833,10.833,0,0,0,0,10.267,9.138,9.138,0,0,0,3.6,3.536,10.586,10.586,0,0,0,5.21,1.273,9.844,9.844,0,0,0,7.56-3.355l3.4,3.235a12.911,12.911,0,0,1-4.871,3.516,16.312,16.312,0,0,1-6.368,1.212,15.936,15.936,0,0,1-7.739-1.88m44.08-22.373h-9.379v23.848H276.2V137.234h-9.347v-4.447H290.79ZM313.365,134a9.33,9.33,0,0,1,4.184,3.477,10.625,10.625,0,0,1,0,10.731,9.267,9.267,0,0,1-4.184,3.5,15.6,15.6,0,0,1-6.407,1.214h-6.386v8.155h-5.256V132.787h11.635A15.694,15.694,0,0,1,313.365,134m-1.429,13.017a5.759,5.759,0,0,0,0-8.328,8.067,8.067,0,0,0-5.21-1.454h-6.153v11.236h6.153a8.078,8.078,0,0,0,5.21-1.454m33.267,9.66v4.406H323.976V132.787H344.63v4.406h-15.4v7.356h13.663v4.325H329.229v7.8Zm31.852,4.406-.041-18.755-9.288,15.523h-2.345l-9.288-15.28v18.513h-4.984V132.787h4.322l11.2,18.714L377.7,132.787h4.286l.079,28.295Zm34.155-4.406v4.406H389.99V132.787h20.654v4.406h-15.4v7.356h13.656v4.325H395.232v7.8Zm30.268-7.526h-4.85v11.925h-5.133V149.15h-4.85l-7.154,11.925h-6.064l8.894-14.755-8.287-13.54h5.577l6.912,11.844h4.984V132.787h5.133v11.844h4.877l6.953-11.844h5.577L445.8,146.38l8.855,14.7h-6.062Z" transform="translate(-185.116 -102.394)" fill="#393939"/>
      <path id="Path_7353" data-name="Path 7353" d="M253.875,161.215a16.091,16.091,0,0,1-7.566-1.9,13.976,13.976,0,0,1-5.461-5.237,15.371,15.371,0,0,1,.019-15.065,14.124,14.124,0,0,1,5.482-5.239,17.133,17.133,0,0,1,14.18-.673,13.122,13.122,0,0,1,4.9,3.547l.071.082-3.562,3.348-.077-.087a9.774,9.774,0,0,0-7.473-3.276,10.5,10.5,0,0,0-5.158,1.26,9.032,9.032,0,0,0-3.553,3.492,10.692,10.692,0,0,0,0,10.157,9.012,9.012,0,0,0,3.551,3.491,10.5,10.5,0,0,0,5.155,1.259,9.778,9.778,0,0,0,7.478-3.318l.078-.085,3.56,3.389-.07.082a13.086,13.086,0,0,1-4.913,3.547,16.292,16.292,0,0,1-6.412,1.221l-.225,0m.046-29.1a15.867,15.867,0,0,0-7.464,1.869,13.9,13.9,0,0,0-5.393,5.152,15.141,15.141,0,0,0-.019,14.838,13.743,13.743,0,0,0,5.371,5.15,15.811,15.811,0,0,0,7.684,1.867,16.1,16.1,0,0,0,6.327-1.2,12.861,12.861,0,0,0,4.757-3.4l-3.236-3.081a9.982,9.982,0,0,1-7.565,3.307,10.738,10.738,0,0,1-5.264-1.287,9.24,9.24,0,0,1-3.642-3.58,10.919,10.919,0,0,1,0-10.376,9.261,9.261,0,0,1,3.643-3.582,10.748,10.748,0,0,1,5.266-1.287,10.012,10.012,0,0,1,7.565,3.266l3.235-3.04a12.893,12.893,0,0,0-4.739-3.4,15.95,15.95,0,0,0-6.3-1.2l-.225,0m200.588,28.7h-6.327l-7.116-11.932h-4.673V160.8h-5.36V148.876h-4.673L419.207,160.8h-6.329l8.962-14.867-8.357-13.654h5.845l6.912,11.844h4.806V132.287h5.36V144.13h4.7l6.952-11.844H453.9l-8.315,13.706Zm-6.2-.227h5.8l-8.787-14.589.036-.058,8.142-13.42h-5.311l-6.953,11.844h-5.055V132.513h-4.907V144.35H426.11L419.2,132.506h-5.31l8.217,13.427-.035.059-8.791,14.583h5.8l7.154-11.925h5.028v11.925h4.907V148.65H441.2Zm-37.335.227H389.53V132.287h20.88v4.633h-15.4v7.129h13.656V148.6H395v7.576h15.978Zm-21.22-.227H410.75V156.4H394.772v-8.029h13.663v-4.1H394.779v-7.582h15.4v-4.18H389.756Zm-7.922.227h-5.24l-.04-18.46-9.112,15.227H364.97l-.033-.054-9.078-14.935v18.222h-5.21V132.287h4.5l11.133,18.606,11.009-18.606h4.464v.113Zm-5.014-.227h4.787l-.079-28.068H377.42l-11.137,18.823L355.02,132.513h-4.145v28.068h4.757v-18.8l9.465,15.571h2.217l9.465-15.818Zm-31.851.227H323.516V132.287H344.4v4.633h-15.4v7.129h13.663V148.6H329v7.576h15.973Zm-21.227-.227h21V156.4H328.769v-8.029h13.658v-4.1H328.765v-7.582h15.4v-4.18H323.742Zm-42.565.227h-5.437V136.96h-9.347v-4.674h24.163v4.674h-9.379Zm-5.21-.227h4.984V136.734h9.379v-4.22H266.62v4.22h9.347Zm24.371.217h-5.482V132.287H306.6a15.877,15.877,0,0,1,6.458,1.222,9.41,9.41,0,0,1,4.234,3.519,10.737,10.737,0,0,1,0,10.854,9.346,9.346,0,0,1-4.236,3.539,15.784,15.784,0,0,1-6.451,1.223h-6.273Zm-5.256-.227h5.029v-8.155h6.5a15.562,15.562,0,0,0,6.36-1.2,9.122,9.122,0,0,0,4.135-3.454,10.512,10.512,0,0,0,0-10.608,9.186,9.186,0,0,0-4.133-3.434h0a15.659,15.659,0,0,0-6.368-1.2H295.083Zm11.3-12.376h-6.266V136.734h6.266a8.211,8.211,0,0,1,5.282,1.48,5.871,5.871,0,0,1,0,8.5h0a8.221,8.221,0,0,1-5.282,1.48m-6.04-.227h6.04a8.01,8.01,0,0,0,5.139-1.429,5.647,5.647,0,0,0,0-8.152,8,8,0,0,0-5.139-1.429h-6.04Z" transform="translate(-184.769 -102.007)" fill="#393939"/>
      <path id="Path_7354" data-name="Path 7354" d="M244.318,306.977a9.815,9.815,0,0,1-3.763-3.672,10.784,10.784,0,0,1,0-10.539,9.828,9.828,0,0,1,3.763-3.677,10.837,10.837,0,0,1,5.371-1.332,11.288,11.288,0,0,1,4.053.709,8.36,8.36,0,0,1,3.156,2.1l-.927.958a8.474,8.474,0,0,0-6.228-2.413,9.365,9.365,0,0,0-4.63,1.158,8.5,8.5,0,0,0-3.273,3.2,9.354,9.354,0,0,0,0,9.121,8.483,8.483,0,0,0,3.276,3.208,9.391,9.391,0,0,0,4.628,1.151,8.487,8.487,0,0,0,6.225-2.433l.927.956a8.475,8.475,0,0,1-3.172,2.114,11.087,11.087,0,0,1-4.039.725,10.839,10.839,0,0,1-5.367-1.332" transform="translate(-184.996 -222.568)" fill="#393939"/>
      <path id="Path_7355" data-name="Path 7355" d="M249.172,308.038a10.971,10.971,0,0,1-5.261-1.347h0a9.927,9.927,0,0,1-3.806-3.715,10.965,10.965,0,0,1,0-10.651,9.945,9.945,0,0,1,3.807-3.721,10.964,10.964,0,0,1,5.427-1.346,11.259,11.259,0,0,1,4.091.716,8.518,8.518,0,0,1,3.2,2.128l.074.079-1.081,1.118-.082-.081a8.4,8.4,0,0,0-6.148-2.38,9.247,9.247,0,0,0-4.576,1.144,8.377,8.377,0,0,0-3.23,3.156,9.179,9.179,0,0,0,0,9.008,8.368,8.368,0,0,0,3.231,3.164,9.323,9.323,0,0,0,4.572,1.137,8.415,8.415,0,0,0,6.147-2.4l.081-.081,1.082,1.116-.074.079a8.636,8.636,0,0,1-3.214,2.142,11.246,11.246,0,0,1-4.08.732h-.159m-5.152-1.546a10.71,10.71,0,0,0,5.311,1.318,10.965,10.965,0,0,0,4-.717,8.411,8.411,0,0,0,3.055-2.007l-.772-.8a8.642,8.642,0,0,1-6.223,2.386,9.559,9.559,0,0,1-4.683-1.165,8.6,8.6,0,0,1-3.32-3.251,9.406,9.406,0,0,1,0-9.232,8.608,8.608,0,0,1,3.318-3.243,9.548,9.548,0,0,1,4.686-1.172,8.633,8.633,0,0,1,6.224,2.366l.772-.8a8.3,8.3,0,0,0-3.038-1.994,11.073,11.073,0,0,0-4.012-.7,10.708,10.708,0,0,0-5.318,1.318,9.715,9.715,0,0,0-3.719,3.634,10.736,10.736,0,0,0,0,10.426,9.7,9.7,0,0,0,3.718,3.628" transform="translate(-184.644 -222.182)" fill="#393939"/>
      <path id="Path_7356" data-name="Path 7356" d="M335.231,299.04h-4.864v9.614H328.89V288.392h1.477v9.324h4.893l7.267-9.324h1.651l-7.761,9.873,8.282,10.4h-1.738Z" transform="translate(-254.383 -223.06)" fill="#393939"/>
      <path id="Path_7357" data-name="Path 7357" d="M344.549,308.387h-2.027l-7.732-9.621h-4.7v9.615h-1.7V287.892h1.7v9.324h4.725l7.267-9.324h1.94l-7.85,9.985Zm-1.918-.227h1.448l-8.192-10.282.056-.07,7.617-9.69H342.2l-7.267,9.324h-5.062v-9.324h-1.25v20.035h1.25v-9.615H334.9Z" transform="translate(-253.996 -222.673)" fill="#393939"/>
      <path id="Path_7358" data-name="Path 7358" d="M401.9,306.939a9.921,9.921,0,0,1-3.783-3.69,10.675,10.675,0,0,1,0-10.482,9.921,9.921,0,0,1,3.779-3.69,10.8,10.8,0,0,1,5.385-1.348,10.912,10.912,0,0,1,5.385,1.332,9.823,9.823,0,0,1,3.779,3.677,10.783,10.783,0,0,1,0,10.539,9.813,9.813,0,0,1-3.779,3.679,11.491,11.491,0,0,1-10.77-.016Zm9.988-1.164a8.548,8.548,0,0,0,3.244-3.2,9.354,9.354,0,0,0,0-9.12,8.557,8.557,0,0,0-3.244-3.2,9.759,9.759,0,0,0-9.22,0,8.5,8.5,0,0,0-3.258,3.2,9.353,9.353,0,0,0,0,9.12,8.489,8.489,0,0,0,3.258,3.2A9.759,9.759,0,0,0,411.886,305.774Z" transform="translate(-306.862 -222.545)" fill="#393939"/>
      <path id="Path_7359" data-name="Path 7359" d="M406.937,308.017a11.6,11.6,0,0,1-5.453-1.363l-.4-.213h.036a10.034,10.034,0,0,1-3.459-3.52,10.848,10.848,0,0,1,0-10.594,10.036,10.036,0,0,1,3.823-3.734,10.962,10.962,0,0,1,5.441-1.362,11.117,11.117,0,0,1,5.437,1.346,9.936,9.936,0,0,1,3.822,3.719,10.965,10.965,0,0,1,0,10.651,9.924,9.924,0,0,1-3.823,3.723,11.6,11.6,0,0,1-5.425,1.348m-5.244-1.509a11.364,11.364,0,0,0,10.561-.038,9.7,9.7,0,0,0,3.734-3.635,10.736,10.736,0,0,0,0-10.427,9.708,9.708,0,0,0-3.734-3.633,11.378,11.378,0,0,0-10.661.016,9.813,9.813,0,0,0-3.736,3.648,10.62,10.62,0,0,0,0,10.369,9.806,9.806,0,0,0,3.739,3.647Zm5.227.156a9.865,9.865,0,0,1-4.664-1.174,8.6,8.6,0,0,1-3.3-3.244,9.406,9.406,0,0,1,0-9.232,8.607,8.607,0,0,1,3.3-3.242,9.851,9.851,0,0,1,9.328,0,8.672,8.672,0,0,1,3.289,3.242,9.406,9.406,0,0,1,0,9.232,8.661,8.661,0,0,1-3.288,3.245h0a9.865,9.865,0,0,1-4.664,1.174m0-17.841a9.64,9.64,0,0,0-4.557,1.147,8.384,8.384,0,0,0-3.213,3.156,9.179,9.179,0,0,0,0,9.009,8.371,8.371,0,0,0,3.214,3.157,9.626,9.626,0,0,0,9.111,0,8.432,8.432,0,0,0,3.2-3.158,9.179,9.179,0,0,0,0-9.009,8.442,8.442,0,0,0-3.2-3.155,9.633,9.633,0,0,0-4.554-1.146" transform="translate(-306.506 -222.16)" fill="#393939"/>
      <path id="Path_7360" data-name="Path 7360" d="M521.048,288.392v20.269h-1.477V289.72H505.847v18.937H504.37V288.392Z" transform="translate(-390.11 -223.06)" fill="#393939"/>
      <path id="Path_7361" data-name="Path 7361" d="M520.774,308.387h-1.7V289.446h-13.5v18.936h-1.7V287.892h16.9Zm-1.477-.227h1.25V288.119H504.1v20.037h1.251V289.22H519.3Z" transform="translate(-389.723 -222.673)" fill="#393939"/>
      <path id="Path_7362" data-name="Path 7362" d="M589.872,308.033a6.115,6.115,0,0,1-2.3-2.129l.906-.983a5.994,5.994,0,0,0,1.984,1.9,4.961,4.961,0,0,0,2.492.652,3.735,3.735,0,0,0,3.027-1.173,5.554,5.554,0,0,0,1-3.6V289.72H589.5v-1.328h8.946v14.3a6.615,6.615,0,0,1-1.391,4.574,5.267,5.267,0,0,1-4.112,1.536,6.432,6.432,0,0,1-3.074-.773" transform="translate(-454.462 -223.06)" fill="#393939"/>
      <path id="Path_7363" data-name="Path 7363" d="M592.443,308.533a6.565,6.565,0,0,1-3.11-.786,6.24,6.24,0,0,1-2.344-2.169l-.047-.073,1.064-1.154.079.122a5.912,5.912,0,0,0,1.947,1.86,4.89,4.89,0,0,0,2.434.637,3.644,3.644,0,0,0,2.94-1.133,5.473,5.473,0,0,0,.973-3.532V289.447H588.9v-1.554h9.173V302.31a6.752,6.752,0,0,1-1.42,4.65,5.4,5.4,0,0,1-4.2,1.573Zm-5.216-3a6.015,6.015,0,0,0,2.212,2.017h0a6.34,6.34,0,0,0,3,.759h.017a5.182,5.182,0,0,0,4.028-1.5,6.538,6.538,0,0,0,1.362-4.5V288.12h-8.72v1.1h7.476v13.085a5.684,5.684,0,0,1-1.026,3.677,3.9,3.9,0,0,1-3.146,1.214,5.077,5.077,0,0,1-2.515-.667,6.146,6.146,0,0,1-1.942-1.812Z" transform="translate(-453.976 -222.674)" fill="#393939"/>
      <path id="Path_7364" data-name="Path 7364" d="M670.954,307.324v1.332H656.97V288.392h13.556v1.332H658.454v7.992h10.8v1.3h-10.8v8.309Z" transform="translate(-508.14 -223.06)" fill="#393939"/>
      <path id="Path_7365" data-name="Path 7365" d="M670.681,308.384H656.47V287.893h13.783v1.559H658.18v7.766h10.8v1.529h-10.8v8.083l12.5,0Zm-13.984-.227h13.758v-1.105l-12.5,0V298.52h10.8v-1.076h-10.8v-8.219h12.072V288.12H656.7Z" transform="translate(-507.753 -222.674)" fill="#393939"/>
      <line id="Line_10" data-name="Line 10" x1="23.671" y1="0.292" transform="translate(5.707 89.633)" fill="#262626"/>
      <rect id="Rectangle_151" data-name="Rectangle 151" width="1.133" height="23.673" transform="matrix(0.012, -1, 1, 0.012, 5.7, 90.2)" fill="#393939"/>
      <line id="Line_11" data-name="Line 11" x1="25.971" y1="0.322" transform="translate(3.341 81.301)" fill="#262626"/>
      <rect id="Rectangle_152" data-name="Rectangle 152" width="0.906" height="25.973" transform="translate(3.336 81.754) rotate(-89.29)" fill="#393939"/>
      <line id="Line_12" data-name="Line 12" x1="20.651" y1="0.254" transform="translate(3.002 73.463)" fill="#262626"/>
      <rect id="Rectangle_153" data-name="Rectangle 153" width="0.68" height="20.653" transform="translate(2.998 73.803) rotate(-89.296)" fill="#393939"/>
      <line id="Line_13" data-name="Line 13" x1="10.163" transform="translate(3.998 65.892)" fill="#262626"/>
      <rect id="Rectangle_154" data-name="Rectangle 154" width="10.163" height="0.453" transform="translate(3.998 65.665)" fill="#393939"/>
      <line id="Line_14" data-name="Line 14" x1="23.671" y2="0.292" transform="translate(11.828 21.517)" fill="#262626"/>
      <rect id="Rectangle_155" data-name="Rectangle 155" width="23.673" height="1.133" transform="matrix(1, -0.012, 0.012, 1, 11.821, 21.244)" fill="#393939"/>
      <line id="Line_15" data-name="Line 15" x1="25.973" y2="0.322" transform="translate(10.299 29.057)" fill="#262626"/>
      <rect id="Rectangle_156" data-name="Rectangle 156" width="25.975" height="0.906" transform="translate(10.293 28.927) rotate(-0.716)" fill="#393939"/>
      <line id="Line_16" data-name="Line 16" x1="20.654" y2="0.256" transform="translate(10.808 36.095)" fill="#262626"/>
      <rect id="Rectangle_157" data-name="Rectangle 157" width="20.655" height="0.68" transform="translate(10.804 36.011) rotate(-0.707)" fill="#393939"/>
      <line id="Line_17" data-name="Line 17" x1="14.168" y2="0.174" transform="translate(11.599 41.741)" fill="#262626"/>
      <rect id="Rectangle_158" data-name="Rectangle 158" width="14.169" height="0.453" transform="translate(11.596 41.686) rotate(-0.687)" fill="#393939"/>
      <path id="Path_7366" data-name="Path 7366" d="M171.589,26.181c-.806,2.916-.075,5.21,1.756,6.23a5.227,5.227,0,0,0,6.343-1.382c1.629-1.812,2.651-3.829,2.118-6.384a4.229,4.229,0,0,0-6.117-3.092,6.686,6.686,0,0,0-4.1,4.628" transform="translate(-132.465 -16.317)" fill="#393939"/>
      <path id="Path_7367" data-name="Path 7367" d="M175.137,32.685a4.558,4.558,0,0,1-2.241-.571c-1.935-1.078-2.612-3.453-1.811-6.354a6.817,6.817,0,0,1,4.163-4.705,4.444,4.444,0,0,1,3.93-.024,4.541,4.541,0,0,1,2.345,3.2c.473,2.269-.209,4.329-2.145,6.483a5.777,5.777,0,0,1-4.242,1.976m2.153-11.873a4.626,4.626,0,0,0-1.946.449c-2.276,1.059-3.672,2.631-4.037,4.547l0,.009c-.773,2.8-.137,5.077,1.7,6.1a5.127,5.127,0,0,0,6.2-1.359c1.884-2.1,2.548-4.093,2.092-6.285a4.317,4.317,0,0,0-2.225-3.039,3.954,3.954,0,0,0-1.786-.422" transform="translate(-132.072 -15.921)" fill="#393939"/>
      <path id="Path_7368" data-name="Path 7368" d="M147,8.351c.618-2.784-.514-5.21-2.666-5.709-2.254-.523-4.651,1.346-5.244,4.091-.573,2.641.68,5.24,2.755,5.7s4.6-1.57,5.156-4.08" transform="translate(-107.469 -1.975)" fill="#393939"/>
      <path id="Path_7369" data-name="Path 7369" d="M142.074,12.226a2.962,2.962,0,0,1-.639-.068c-2.124-.468-3.426-3.139-2.841-5.832a5.674,5.674,0,0,1,2.428-3.61,3.872,3.872,0,0,1,2.953-.567c2.231.517,3.388,2.974,2.751,5.844h0c-.525,2.356-2.668,4.234-4.652,4.234m1.11-9.941a3.821,3.821,0,0,0-2.04.622,5.448,5.448,0,0,0-2.328,3.467c-.558,2.573.664,5.121,2.668,5.563,1.987.438,4.474-1.54,5.021-3.994.609-2.742-.477-5.086-2.581-5.574a3.272,3.272,0,0,0-.74-.084" transform="translate(-107.088 -1.591)" fill="#393939"/>
      <path id="Path_7370" data-name="Path 7370" d="M106.84,3.3c-.655,2.549.353,4.843,2.322,5.292,1.67.383,3.1-.691,3.625-2.718.643-2.474-.4-4.775-2.385-5.265-1.738-.435-3.008.526-3.561,2.691" transform="translate(-82.483 -0.394)" fill="#393939"/>
      <path id="Path_7371" data-name="Path 7371" d="M109.447,8.392a3.114,3.114,0,0,1-2.678-1.543,5.2,5.2,0,0,1-.423-3.968c.572-2.242,1.886-3.227,3.7-2.773a3.267,3.267,0,0,1,2.048,1.555,5.075,5.075,0,0,1,.42,3.848c-.47,1.814-1.635,2.881-3.065,2.881m-.21-8.163c-1.284,0-2.219.937-2.671,2.708h0a4.974,4.974,0,0,0,.4,3.794,2.881,2.881,0,0,0,1.84,1.359c1.609.368,2.979-.666,3.49-2.637a4.85,4.85,0,0,0-.4-3.675A3.048,3.048,0,0,0,109.99.328a3.118,3.118,0,0,0-.753-.1" transform="translate(-82.098 0)" fill="#393939"/>
      <path id="Path_7372" data-name="Path 7372" d="M83.645,14.714c.544-2.073-.517-4.3-2.071-4.662a2.716,2.716,0,0,0-2.945,2.227c-.4,1.758.716,3.978,2.213,4.241a2.34,2.34,0,0,0,2.8-1.806" transform="translate(-60.753 -7.739)" fill="#393939"/>
      <path id="Path_7373" data-name="Path 7373" d="M81,16.3a3.3,3.3,0,0,1-.565-.051,2.64,2.64,0,0,1-1.67-1.227,4.213,4.213,0,0,1-.634-3.15,3.235,3.235,0,0,1,1.4-1.984,2.223,2.223,0,0,1,1.677-.328,2.751,2.751,0,0,1,1.678,1.331,4.582,4.582,0,0,1,.476,3.47l0,.007A2.442,2.442,0,0,1,81,16.3m-.223-6.564a2.14,2.14,0,0,0-1.123.344,3,3,0,0,0-1.3,1.842,3.977,3.977,0,0,0,.6,2.974,2.417,2.417,0,0,0,1.52,1.13A2.208,2.208,0,0,0,83.149,14.3a4.351,4.351,0,0,0-.452-3.291,2.529,2.529,0,0,0-1.536-1.228,1.675,1.675,0,0,0-.383-.044" transform="translate(-60.366 -7.353)" fill="#393939"/>
      <path id="Path_7374" data-name="Path 7374" d="M62.684,29.77c.338-1.586-.591-3.414-1.826-3.661A1.913,1.913,0,0,0,58.4,27.722a2.992,2.992,0,0,0,2.039,3.366,1.705,1.705,0,0,0,2.243-1.318" transform="translate(-45.127 -20.148)" fill="#393939"/>
      <path id="Path_7375" data-name="Path 7375" d="M60.648,30.89a2.676,2.676,0,0,1-.617-.077,3.114,3.114,0,0,1-2.123-3.5,2.025,2.025,0,0,1,2.588-1.7,2.25,2.25,0,0,1,1.379,1.037,3.77,3.77,0,0,1,.535,2.758l0,.008a1.782,1.782,0,0,1-1.76,1.474m-.741-5.113a1.764,1.764,0,0,0-1.779,1.584,2.871,2.871,0,0,0,1.954,3.231,1.6,1.6,0,0,0,2.107-1.236,3.537,3.537,0,0,0-.5-2.583,2.029,2.029,0,0,0-1.234-.94,2.779,2.779,0,0,0-.544-.057" transform="translate(-44.743 -19.763)" fill="#393939"/>
      <path id="Path_7376" data-name="Path 7376" d="M42.549,49.882a1.869,1.869,0,1,1-1.869,1.869,1.869,1.869,0,0,1,1.869-1.869" transform="translate(-31.464 -38.582)" fill="#393939"/>
      <path id="Path_7377" data-name="Path 7377" d="M42.162,53.347a1.982,1.982,0,1,1,1.982-1.982,1.984,1.984,0,0,1-1.982,1.982m0-3.738a1.756,1.756,0,1,0,1.756,1.756,1.758,1.758,0,0,0-1.756-1.756" transform="translate(-31.078 -38.196)" fill="#393939"/>
      <path id="Path_7378" data-name="Path 7378" d="M25.273,76.883a2.453,2.453,0,1,1-2.453,2.453,2.453,2.453,0,0,1,2.453-2.453" transform="translate(-17.65 -59.466)" fill="#393939"/>
      <path id="Path_7379" data-name="Path 7379" d="M24.887,81.516a2.567,2.567,0,1,1,2.567-2.567,2.57,2.57,0,0,1-2.567,2.567m0-4.907a2.34,2.34,0,1,0,2.34,2.34,2.343,2.343,0,0,0-2.34-2.34" transform="translate(-17.264 -59.079)" fill="#393939"/>
      <path id="Path_7380" data-name="Path 7380" d="M14.559,109.122a2.909,2.909,0,1,1-2.909,2.909,2.909,2.909,0,0,1,2.909-2.909" transform="translate(-9.011 -84.401)" fill="#393939"/>
      <path id="Path_7381" data-name="Path 7381" d="M14.172,114.666a3.022,3.022,0,1,1,3.022-3.022,3.025,3.025,0,0,1-3.022,3.022m0-5.818a2.8,2.8,0,1,0,2.8,2.8,2.8,2.8,0,0,0-2.8-2.8" transform="translate(-8.624 -84.015)" fill="#393939"/>
      <path id="Path_7382" data-name="Path 7382" d="M4.222,141.792A3.722,3.722,0,1,1,.5,145.514a3.722,3.722,0,0,1,3.722-3.722" transform="translate(-0.387 -109.67)" fill="#393939"/>
      <path id="Path_7383" data-name="Path 7383" d="M3.835,148.963a3.835,3.835,0,1,1,3.835-3.835,3.84,3.84,0,0,1-3.835,3.835m0-7.444a3.609,3.609,0,1,0,3.609,3.609,3.613,3.613,0,0,0-3.609-3.609" transform="translate(0 -109.284)" fill="#393939"/>
      <path id="Path_7384" data-name="Path 7384" d="M15,180.892a4.334,4.334,0,1,1-4.334,4.334A4.334,4.334,0,0,1,15,180.892" transform="translate(-8.253 -139.913)" fill="#393939"/>
      <path id="Path_7385" data-name="Path 7385" d="M14.617,189.286a4.447,4.447,0,1,1,4.447-4.447,4.452,4.452,0,0,1-4.447,4.447m0-8.667a4.22,4.22,0,1,0,4.22,4.22,4.225,4.225,0,0,0-4.22-4.22" transform="translate(-7.866 -139.526)" fill="#393939"/>
      <path id="Path_7386" data-name="Path 7386" d="M164.3,415.662a1.651,1.651,0,1,1-1.651,1.651,1.652,1.652,0,0,1,1.651-1.651" transform="translate(-125.803 -321.498)" fill="#393939"/>
      <path id="Path_7387" data-name="Path 7387" d="M163.915,418.691a1.765,1.765,0,1,1,1.765-1.765,1.767,1.767,0,0,1-1.765,1.765m0-3.3a1.538,1.538,0,1,0,1.538,1.538,1.54,1.54,0,0,0-1.538-1.538" transform="translate(-125.417 -321.111)" fill="#393939"/>
      <path id="Path_7388" data-name="Path 7388" d="M164.259,391.252a1.869,1.869,0,1,1-1.869,1.869,1.869,1.869,0,0,1,1.869-1.869" transform="translate(-125.602 -302.618)" fill="#393939"/>
      <path id="Path_7389" data-name="Path 7389" d="M163.872,394.717a1.982,1.982,0,1,1,1.982-1.982,1.984,1.984,0,0,1-1.982,1.982m0-3.738a1.756,1.756,0,1,0,1.756,1.756,1.758,1.758,0,0,0-1.756-1.756" transform="translate(-125.215 -302.232)" fill="#393939"/>
      <path id="Path_7390" data-name="Path 7390" d="M155.083,356.162a2.453,2.453,0,1,1-2.453,2.453,2.453,2.453,0,0,1,2.453-2.453" transform="translate(-118.053 -275.477)" fill="#393939"/>
      <path id="Path_7391" data-name="Path 7391" d="M154.7,360.8a2.567,2.567,0,1,1,2.567-2.567A2.57,2.57,0,0,1,154.7,360.8m0-4.907a2.34,2.34,0,1,0,2.34,2.34,2.343,2.343,0,0,0-2.34-2.34" transform="translate(-117.666 -275.09)" fill="#393939"/>
      <path id="Path_7392" data-name="Path 7392" d="M138.669,321.962a2.909,2.909,0,1,1-2.909,2.909,2.909,2.909,0,0,1,2.909-2.909" transform="translate(-105.005 -249.025)" fill="#393939"/>
      <path id="Path_7393" data-name="Path 7393" d="M138.282,327.507a3.022,3.022,0,1,1,3.022-3.022,3.026,3.026,0,0,1-3.022,3.022m0-5.818a2.8,2.8,0,1,0,2.8,2.8,2.8,2.8,0,0,0-2.8-2.8" transform="translate(-104.618 -248.639)" fill="#393939"/>
      <path id="Path_7394" data-name="Path 7394" d="M118.5,285.673a3.722,3.722,0,1,1-3.722,3.722,3.722,3.722,0,0,1,3.722-3.722" transform="translate(-88.778 -220.957)" fill="#393939"/>
      <path id="Path_7395" data-name="Path 7395" d="M118.115,292.843a3.835,3.835,0,1,1,3.835-3.835,3.84,3.84,0,0,1-3.835,3.835m0-7.444a3.609,3.609,0,1,0,3.609,3.609,3.613,3.613,0,0,0-3.609-3.609" transform="translate(-88.391 -220.57)" fill="#393939"/>
      <path id="Path_7396" data-name="Path 7396" d="M79.794,259.062A4.334,4.334,0,1,1,75.46,263.4a4.334,4.334,0,0,1,4.334-4.334" transform="translate(-58.365 -200.374)" fill="#393939"/>
      <path id="Path_7397" data-name="Path 7397" d="M79.407,267.456a4.447,4.447,0,1,1,4.447-4.447,4.452,4.452,0,0,1-4.447,4.447m0-8.667a4.22,4.22,0,1,0,4.22,4.22,4.225,4.225,0,0,0-4.22-4.22" transform="translate(-57.979 -199.987)" fill="#393939"/>
      <path id="Path_7398" data-name="Path 7398" d="M25.091,262.113a1.651,1.651,0,1,1-1.651,1.651,1.651,1.651,0,0,1,1.651-1.651" transform="translate(-18.13 -202.734)" fill="#393939"/>
      <path id="Path_7399" data-name="Path 7399" d="M24.7,265.141a1.765,1.765,0,1,1,1.765-1.765,1.767,1.767,0,0,1-1.765,1.765m0-3.3a1.538,1.538,0,1,0,1.538,1.538,1.54,1.54,0,0,0-1.538-1.538" transform="translate(-17.743 -202.346)" fill="#393939"/>
      <path id="Path_7400" data-name="Path 7400" d="M15.789,283a1.869,1.869,0,1,1-1.869,1.869A1.869,1.869,0,0,1,15.789,283" transform="translate(-10.767 -218.891)" fill="#393939"/>
      <path id="Path_7401" data-name="Path 7401" d="M15.4,286.467a1.982,1.982,0,1,1,1.982-1.982,1.984,1.984,0,0,1-1.982,1.982m0-3.738a1.756,1.756,0,1,0,1.756,1.756A1.758,1.758,0,0,0,15.4,282.73" transform="translate(-10.38 -218.505)" fill="#393939"/>
      <path id="Path_7402" data-name="Path 7402" d="M9.6,313.452a2.453,2.453,0,1,1-2.453,2.453A2.453,2.453,0,0,1,9.6,313.452" transform="translate(-5.53 -242.443)" fill="#393939"/>
      <path id="Path_7403" data-name="Path 7403" d="M9.217,318.085a2.567,2.567,0,1,1,2.567-2.567,2.57,2.57,0,0,1-2.567,2.567m0-4.907a2.34,2.34,0,1,0,2.34,2.34,2.343,2.343,0,0,0-2.34-2.34" transform="translate(-5.144 -242.056)" fill="#393939"/>
      <path id="Path_7404" data-name="Path 7404" d="M11.209,346.752A2.909,2.909,0,1,1,8.3,349.661a2.909,2.909,0,0,1,2.909-2.909" transform="translate(-6.42 -268.199)" fill="#393939"/>
      <path id="Path_7405" data-name="Path 7405" d="M10.822,352.3a3.022,3.022,0,1,1,3.022-3.022,3.026,3.026,0,0,1-3.022,3.022m0-5.818a2.8,2.8,0,1,0,2.8,2.8,2.8,2.8,0,0,0-2.8-2.8" transform="translate(-6.033 -267.813)" fill="#393939"/>
      <path id="Path_7406" data-name="Path 7406" d="M13.782,379.8a3.722,3.722,0,1,1-3.722,3.722,3.722,3.722,0,0,1,3.722-3.722" transform="translate(-7.781 -293.762)" fill="#393939"/>
      <path id="Path_7407" data-name="Path 7407" d="M13.4,386.973a3.835,3.835,0,1,1,3.835-3.835,3.84,3.84,0,0,1-3.835,3.835m0-7.444A3.609,3.609,0,1,0,17,383.138,3.613,3.613,0,0,0,13.4,379.53" transform="translate(-7.394 -293.376)" fill="#393939"/>
      <path id="Path_7408" data-name="Path 7408" d="M38.134,411.942a4.334,4.334,0,1,1-4.334,4.334,4.334,4.334,0,0,1,4.334-4.334" transform="translate(-26.143 -318.621)" fill="#393939"/>
      <path id="Path_7409" data-name="Path 7409" d="M37.747,420.336a4.447,4.447,0,1,1,4.447-4.447,4.452,4.452,0,0,1-4.447,4.447m0-8.667a4.22,4.22,0,1,0,4.22,4.22,4.225,4.225,0,0,0-4.22-4.22" transform="translate(-25.756 -318.234)" fill="#393939"/>
      <path id="Path_7410" data-name="Path 7410" d="M81.031,199.532a1.651,1.651,0,1,1-1.651,1.651,1.652,1.652,0,0,1,1.651-1.651" transform="translate(-61.397 -154.33)" fill="#393939"/>
      <path id="Path_7411" data-name="Path 7411" d="M80.645,202.563a1.765,1.765,0,1,1,1.765-1.765,1.767,1.767,0,0,1-1.765,1.765m0-3.3a1.538,1.538,0,1,0,1.538,1.538,1.54,1.54,0,0,0-1.538-1.538" transform="translate(-61.011 -153.944)" fill="#393939"/>
      <path id="Path_7412" data-name="Path 7412" d="M102.529,177.222a1.869,1.869,0,1,1-1.869,1.869,1.869,1.869,0,0,1,1.869-1.869" transform="translate(-77.856 -137.074)" fill="#393939"/>
      <path id="Path_7413" data-name="Path 7413" d="M102.142,180.687a1.982,1.982,0,1,1,1.982-1.982,1.984,1.984,0,0,1-1.982,1.982m0-3.738a1.756,1.756,0,1,0,1.756,1.756,1.758,1.758,0,0,0-1.756-1.756" transform="translate(-77.47 -136.688)" fill="#393939"/>
      <path id="Path_7414" data-name="Path 7414" d="M124.143,151.162a2.453,2.453,0,1,1-2.453,2.453,2.454,2.454,0,0,1,2.453-2.453" transform="translate(-94.122 -116.918)" fill="#393939"/>
      <path id="Path_7415" data-name="Path 7415" d="M123.757,155.8a2.567,2.567,0,1,1,2.567-2.567,2.569,2.569,0,0,1-2.567,2.567m0-4.907a2.34,2.34,0,1,0,2.34,2.34,2.343,2.343,0,0,0-2.34-2.34" transform="translate(-93.736 -116.531)" fill="#393939"/>
      <path id="Path_7416" data-name="Path 7416" d="M141.809,119.362a2.909,2.909,0,1,1-2.909,2.909,2.909,2.909,0,0,1,2.909-2.909" transform="translate(-107.434 -92.322)" fill="#393939"/>
      <path id="Path_7417" data-name="Path 7417" d="M141.422,124.907a3.022,3.022,0,1,1,3.022-3.022,3.026,3.026,0,0,1-3.022,3.022m0-5.818a2.8,2.8,0,1,0,2.8,2.8,2.8,2.8,0,0,0-2.8-2.8" transform="translate(-107.047 -91.936)" fill="#393939"/>
      <path id="Path_7418" data-name="Path 7418" d="M157.342,83.582A3.722,3.722,0,1,1,153.62,87.3a3.722,3.722,0,0,1,3.722-3.722" transform="translate(-118.819 -64.647)" fill="#393939"/>
      <path id="Path_7419" data-name="Path 7419" d="M156.955,90.753a3.835,3.835,0,1,1,3.835-3.835,3.84,3.84,0,0,1-3.835,3.835m0-7.444a3.609,3.609,0,1,0,3.609,3.609,3.613,3.613,0,0,0-3.609-3.609" transform="translate(-118.432 -64.261)" fill="#393939"/>
      <path id="Path_7420" data-name="Path 7420" d="M40.422,219.152a5.392,5.392,0,1,1-5.392,5.392,5.392,5.392,0,0,1,5.392-5.392" transform="translate(-27.094 -169.505)" fill="#393939"/>
      <path id="Path_7421" data-name="Path 7421" d="M40.035,229.662a5.505,5.505,0,1,1,5.5-5.505,5.511,5.511,0,0,1-5.5,5.505m0-10.784a5.279,5.279,0,1,0,5.278,5.278,5.284,5.284,0,0,0-5.278-5.278" transform="translate(-26.708 -169.119)" fill="#393939"/>
    </g>
  </g>
</svg>
