<svg id="Component_2_1" data-name="Component 2 – 1" xmlns="http://www.w3.org/2000/svg" xmlns:xlink="http://www.w3.org/1999/xlink" width="332" height="53.654" viewBox="0 0 332 53.654">
  <defs>
    <clipPath id="clip-path">
      <rect id="Rectangle_35" data-name="Rectangle 35" width="332" height="53.654" fill="none"/>
    </clipPath>
  </defs>
  <rect id="Rectangle_32" data-name="Rectangle 32" width="8.354" height="53.504" transform="translate(16.862)" fill="#464647"/>
  <g id="Group_47" data-name="Group 47" transform="translate(0 0)">
    <g id="Group_46" data-name="Group 46" clip-path="url(#clip-path)">
      <path id="Path_15" data-name="Path 15" d="M14.939,1.42a5.135,5.135,0,0,1,3.5-1.348A4.982,4.982,0,0,1,21.9,1.42a4.316,4.316,0,0,1,1.481,3.324A4.308,4.308,0,0,1,21.9,8.066a4.982,4.982,0,0,1-3.459,1.348,5.135,5.135,0,0,1-3.5-1.348,4.249,4.249,0,0,1-1.527-3.322A4.258,4.258,0,0,1,14.939,1.42m7.455,52.04H14.04V13.581h8.354Z" transform="translate(18.988 0.102)" fill="#464647"/>
      <path id="Path_16" data-name="Path 16" d="M1.527,1.42A5.141,5.141,0,0,1,5.032.072,4.981,4.981,0,0,1,8.489,1.42,4.316,4.316,0,0,1,9.97,4.744,4.308,4.308,0,0,1,8.489,8.066,4.981,4.981,0,0,1,5.032,9.414,5.141,5.141,0,0,1,1.527,8.066,4.249,4.249,0,0,1,0,4.744,4.258,4.258,0,0,1,1.527,1.42M8.982,53.46H.628V13.581H8.982Z" transform="translate(0 0.102)" fill="#464647"/>
      <path id="Path_17" data-name="Path 17" d="M75.532,5.655v39.9H67.178V38.347a19.245,19.245,0,0,1-5.747,4.807,16.631,16.631,0,0,1-8.535,2.2,19.924,19.924,0,0,1-9.566-2.29,16.668,16.668,0,0,1-6.738-6.694,21.128,21.128,0,0,1-2.469-10.509,21.308,21.308,0,0,1,2.558-10.644A18.1,18.1,0,0,1,43.6,8.211a19.243,19.243,0,0,1,9.656-2.469A15.983,15.983,0,0,1,61.52,7.807a16.843,16.843,0,0,1,5.658,5.39l.631-7.542ZM63,35.879a11.4,11.4,0,0,0,4.177-6.962V21.551a11.449,11.449,0,0,0-4.491-6.421,12.984,12.984,0,0,0-7.815-2.471,12.2,12.2,0,0,0-6.153,1.616,11.9,11.9,0,0,0-4.491,4.537,13.1,13.1,0,0,0-1.662,6.6,12.877,12.877,0,0,0,1.708,6.556,13.012,13.012,0,0,0,4.58,4.716,11.839,11.839,0,0,0,6.288,1.754A12.392,12.392,0,0,0,63,35.879" transform="translate(48.31 8.006)" fill="#464647"/>
      <path id="Path_18" data-name="Path 18" d="M87.544,35.031c0,6.694-4.708,10.381-14.354,10.381H56.342V5.7H72.057c8.168,0,13.33,3.4,13.33,10.042,0,5.1-3.063,8.168-7.827,9.3,6.636.908,9.984,4.254,9.984,9.984M57.475,6.778V24.706H72.284c7.544,0,11.97-3.063,11.97-8.962s-4.426-8.965-11.97-8.965ZM86.409,35.031c0-6.411-4.537-9.248-12.99-9.248H57.475V44.334H73.419c8.453,0,12.99-2.894,12.99-9.3" transform="translate(79.767 8.071)" fill="#464647"/>
      <rect id="Rectangle_33" data-name="Rectangle 33" width="1.135" height="39.71" transform="translate(172.879 13.772)" fill="#464647"/>
      <path id="Path_19" data-name="Path 19" d="M107.134,5.7v39.71h-.964L77.068,7.8V45.412H75.932V5.7H76.9L106,43.315V5.7Z" transform="translate(107.502 8.071)" fill="#464647"/>
      <path id="Path_20" data-name="Path 20" d="M109.5,40.065l.795-.737c2.5,2.95,7.544,5.274,13.1,5.274,8.624,0,12.482-3.969,12.482-8.849,0-13.33-25.245-5.5-25.245-20.138,0-5.22,3.971-9.984,13.275-9.984a19.735,19.735,0,0,1,11.516,3.631l-.623.908a18.888,18.888,0,0,0-10.837-3.462c-8.337,0-12.2,4.027-12.2,8.962,0,13.388,25.247,5.73,25.247,20.082,0,5.276-4.143,9.929-13.56,9.929-5.786,0-11.289-2.326-13.956-5.617" transform="translate(155.028 7.972)" fill="#464647"/>
      <path id="Path_21" data-name="Path 21" d="M134.038,24.706l-9.871,10.156v10.55h-1.135V5.7h1.135V33.328L151.057,5.7h1.532l-17.7,18.21,19,21.5h-1.532Z" transform="translate(174.183 8.072)" fill="#464647"/>
      <rect id="Rectangle_34" data-name="Rectangle 34" width="1.135" height="39.71" transform="translate(330.867 13.772)" fill="#464647"/>
      <path id="Path_22" data-name="Path 22" d="M131.2,45.666H91.087V5.557H131.2Zm-38.9-1.208h37.693V6.765H92.295Z" transform="translate(128.957 7.867)" fill="#2e6eff"/>
      <path id="Path_23" data-name="Path 23" d="M51.3,5.667,41.1,28.375,27.5,5.667H18.057L37.649,35.187l-4.4,10.339h8.407L59.029,5.667Z" transform="translate(25.565 8.023)" fill="#464647"/>
    </g>
  </g>
</svg>
